<svg width="1192" height="710" viewBox="0 0 1192 710" fill="none" xmlns="http://www.w3.org/2000/svg">
    <g clip-path="url(#clip0)">
        <path d="M1175.26 286.728C1133.63 123.042 989.801 4.88347 820.971 0.144239C731.716 -2.36125 637.795 27.2407 569.413 130.829C447.173 316.004 576.925 443.966 667.384 504.77C711.087 534.206 750.466 569.599 784.38 609.926C845.482 682.433 963.029 772.534 1103.02 631.36C1204.49 529.036 1202.99 395.759 1175.26 286.728Z" fill="#F2F2F2" />
        <path d="M804.549 134.893H802.549V254.893H804.549V134.893Z" fill="#E6E6E6" />
        <path d="M929.549 134.893H927.549V254.893H929.549V134.893Z" fill="#E6E6E6" />
        <path d="M836.726 176.893C835.959 176.894 835.224 177.2 834.682 177.743C834.14 178.285 833.836 179.021 833.836 179.788C833.836 180.555 834.14 181.291 834.682 181.834C835.224 182.377 835.959 182.682 836.726 182.684H895.466C896.234 182.684 896.97 182.379 897.513 181.836C898.056 181.293 898.361 180.556 898.361 179.788C898.361 179.02 898.056 178.284 897.513 177.741C896.97 177.198 896.234 176.893 895.466 176.893H836.726Z" fill="#E6E6E6" />
        <path d="M836.726 191.893C835.959 191.894 835.224 192.2 834.682 192.743C834.14 193.285 833.836 194.021 833.836 194.788C833.836 195.555 834.14 196.291 834.682 196.834C835.224 197.377 835.959 197.682 836.726 197.684H895.466C896.234 197.684 896.97 197.379 897.513 196.836C898.056 196.293 898.361 195.556 898.361 194.788C898.361 194.02 898.056 193.284 897.513 192.741C896.97 192.198 896.234 191.893 895.466 191.893H836.726Z" fill="#E6E6E6" />
        <path d="M836.726 206.893C835.959 206.894 835.224 207.2 834.682 207.743C834.14 208.285 833.836 209.021 833.836 209.788C833.836 210.555 834.14 211.291 834.682 211.834C835.224 212.377 835.959 212.682 836.726 212.684H895.466C896.234 212.684 896.97 212.379 897.513 211.836C898.056 211.293 898.361 210.556 898.361 209.788C898.361 209.02 898.056 208.284 897.513 207.741C896.97 207.198 896.234 206.893 895.466 206.893H836.726Z" fill="#E6E6E6" />
        <path d="M958.226 176.893C957.459 176.894 956.724 177.2 956.182 177.743C955.64 178.285 955.336 179.021 955.336 179.788C955.336 180.555 955.64 181.291 956.182 181.834C956.724 182.377 957.459 182.682 958.226 182.684H1016.97C1017.73 182.684 1018.47 182.379 1019.01 181.836C1019.56 181.293 1019.86 180.556 1019.86 179.788C1019.86 179.02 1019.56 178.284 1019.01 177.741C1018.47 177.198 1017.73 176.893 1016.97 176.893H958.226Z" fill="#E6E6E6" />
        <path d="M958.226 191.893C957.459 191.894 956.724 192.2 956.182 192.743C955.64 193.285 955.336 194.021 955.336 194.788C955.336 195.555 955.64 196.291 956.182 196.834C956.724 197.377 957.459 197.682 958.226 197.684H1016.97C1017.73 197.684 1018.47 197.379 1019.01 196.836C1019.56 196.293 1019.86 195.556 1019.86 194.788C1019.86 194.02 1019.56 193.284 1019.01 192.741C1018.47 192.198 1017.73 191.893 1016.97 191.893H958.226Z" fill="#E6E6E6" />
        <path d="M958.226 206.893C957.459 206.894 956.724 207.2 956.182 207.743C955.64 208.285 955.336 209.021 955.336 209.788C955.336 210.555 955.64 211.291 956.182 211.834C956.724 212.377 957.459 212.682 958.226 212.684H1016.97C1017.73 212.684 1018.47 212.379 1019.01 211.836C1019.56 211.293 1019.86 210.556 1019.86 209.788C1019.86 209.02 1019.56 208.284 1019.01 207.741C1018.47 207.198 1017.73 206.893 1016.97 206.893H958.226Z" fill="#E6E6E6" />
        <path d="M1061.4 695.649H794V693.464H1061.8L1061.4 695.649Z" fill="#3F3D56" />
        <path d="M879.025 665.998H860.421V691.3H879.025V665.998Z" fill="#FFB8B8" />
        <path d="M973.533 665.998H954.929V691.3H973.533V665.998Z" fill="#FFB8B8" />
        <path d="M986.439 456.146C984.845 456.146 983.269 455.801 981.821 455.134C980.373 454.467 979.086 453.494 978.05 452.282C977.014 451.071 976.252 449.649 975.818 448.115C975.383 446.581 975.286 444.971 975.533 443.396L978.58 423.971L979.486 418.194H993.625L994.369 426.38L997.314 443.204C997.591 444.79 997.518 446.419 997.1 447.974C996.682 449.53 995.928 450.975 994.891 452.208C993.855 453.441 992.562 454.433 991.102 455.113C989.641 455.794 988.05 456.146 986.439 456.146Z" fill="#FFB8B8" />
        <path d="M848.026 453.914C846.432 453.914 844.856 453.568 843.408 452.901C841.96 452.234 840.673 451.262 839.637 450.05C838.6 448.838 837.839 447.417 837.404 445.883C836.97 444.349 836.873 442.738 837.12 441.163L840.167 421.739L841.073 415.962H855.212L855.956 424.147L858.9 440.971C859.178 442.558 859.105 444.186 858.687 445.742C858.268 447.297 857.514 448.742 856.478 449.976C855.442 451.209 854.148 452.2 852.688 452.881C851.228 453.561 849.637 453.914 848.026 453.914Z" fill="#FFB8B8" />
        <path d="M975.765 671.207L953.441 670.463L916.977 450.193L880.513 671.207L858.933 670.463L852.98 415.961H977.998L975.765 671.207Z" fill="#2F2E41" />
        <path d="M878.559 708.865C859.618 709.413 844.791 704.293 835.069 692.138C834.048 690.857 833.442 689.295 833.333 687.661C833.225 686.027 833.618 684.399 834.462 682.994C835.257 681.67 836.417 680.602 837.803 679.921C839.189 679.239 840.743 678.972 842.278 679.151L848.433 679.87L861.249 673.466C858.628 688.713 865.759 689 882.818 683.89L885.892 699.641C886.108 700.74 886.083 701.874 885.818 702.963C885.554 704.052 885.055 705.071 884.358 705.948C883.66 706.825 882.78 707.541 881.779 708.044C880.778 708.548 879.679 708.828 878.559 708.865Z" fill="#2F2E41" />
        <path d="M973.067 708.865C954.126 709.413 939.299 704.293 929.577 692.138C928.556 690.857 927.95 689.295 927.841 687.661C927.733 686.027 928.126 684.399 928.97 682.994C929.764 681.67 930.925 680.602 932.311 679.921C933.697 679.239 935.251 678.972 936.786 679.151L942.941 679.87L955.661 674.504C953.039 689.751 960.267 689 977.326 683.89L980.4 699.641C980.616 700.74 980.591 701.874 980.326 702.963C980.061 704.052 979.563 705.071 978.866 705.948C978.168 706.825 977.288 707.541 976.287 708.044C975.286 708.548 974.187 708.828 973.067 708.865Z" fill="#2F2E41" />
        <path d="M909.536 183.041C925.975 183.041 939.302 169.714 939.302 153.274C939.302 136.835 925.975 123.508 909.536 123.508C893.096 123.508 879.769 136.835 879.769 153.274C879.769 169.714 893.096 183.041 909.536 183.041Z" fill="#FFB8B8" />
        <path d="M939.302 207.598L907.303 209.086L905.815 175.599L933.349 165.181L939.302 207.598Z" fill="#FFB8B8" />
        <path d="M985.44 426.38C941.803 418.123 892.089 415.165 858.933 426.38L869.351 207.598L904.326 197.18L906.931 193.087L936.325 188.25L950.464 192.715L959.394 206.109L998.09 227.69C979.042 301.373 973.4 368.319 985.44 426.38Z" fill="#3F3D56" />
        <path d="M1006.28 424.891L974.277 421.171C980.947 388.674 978.219 346.404 979.858 303.966C980.898 277.05 986.48 252.555 988.416 222.481C1000.55 225.645 1006.83 236.914 1006.91 250.194C1007.25 313.181 1013.2 372.198 1006.28 424.891Z" fill="#3F3D56" />
        <path d="M867.119 421.915L835.864 419.682L854.468 314.012L860.766 226.078C859.786 213.254 866.64 205.803 876.793 205.365C898.97 231.627 901.541 267.819 894.652 308.803L867.119 421.915Z" fill="#3F3D56" />
        <path d="M919.19 175.16L915.351 164.232C913.197 158.101 909.417 152.67 904.414 148.522C899.412 144.374 893.376 141.663 886.952 140.681L862.895 140.129L869.574 129.395C872.795 124.219 877.402 120.048 882.872 117.355C888.342 114.663 894.457 113.556 900.524 114.161L924.567 116.558C930.291 117.128 935.557 119.94 939.215 124.379C942.873 128.818 944.626 134.524 944.092 140.252L941.887 163.898C941.652 166.425 940.774 168.851 939.337 170.944C937.9 173.037 935.952 174.728 933.678 175.856C931.404 176.984 928.879 177.513 926.343 177.391C923.808 177.269 921.345 176.501 919.19 175.16Z" fill="#2F2E41" />
        <path d="M213.24 410.826C212.118 409.165 211.016 407.46 209.962 405.758L211.664 404.705C212.703 406.386 213.791 408.068 214.897 409.707L213.24 410.826Z" fill="#3F3D56" />
        <path d="M203.932 395.039C202.077 391.398 200.353 387.638 198.808 383.861L200.659 383.103C202.184 386.829 203.884 390.539 205.714 394.131L203.932 395.039ZM194.628 372.296C193.401 368.403 192.323 364.409 191.422 360.426L193.373 359.984C194.261 363.914 195.325 367.854 196.536 371.695L194.628 372.296ZM189.21 348.33C188.644 344.294 188.237 340.179 188.002 336.097L189.999 335.981C190.23 340.009 190.632 344.07 191.191 348.052L189.21 348.33ZM189.793 323.85L187.794 323.803C187.89 319.715 188.156 315.588 188.583 311.537L190.572 311.747C190.15 315.744 189.888 319.816 189.793 323.85ZM192.34 299.75L190.375 299.377C191.137 295.366 192.076 291.338 193.166 287.405L195.094 287.939C194.018 291.82 193.092 295.793 192.34 299.75ZM198.818 276.397L196.942 275.705C198.356 271.874 199.949 268.054 201.677 264.35L203.49 265.196C201.785 268.849 200.213 272.618 198.818 276.397ZM472.722 270.215C471.159 266.508 469.419 262.817 467.551 259.244L469.323 258.318C471.217 261.939 472.98 265.68 474.565 269.438L472.722 270.215ZM209.071 254.421L207.335 253.429C209.36 249.886 211.56 246.381 213.873 243.012L215.521 244.144C213.24 247.468 211.069 250.926 209.071 254.421ZM461.491 248.737C459.337 245.335 457.015 241.98 454.587 238.764L456.184 237.559C458.644 240.819 460.998 244.22 463.181 247.667L461.491 248.737ZM222.794 234.432L221.244 233.169C223.824 230.003 226.566 226.907 229.396 223.964L230.837 225.349C228.045 228.253 225.339 231.309 222.794 234.432ZM446.889 229.39C444.207 226.384 441.367 223.452 438.448 220.677L439.827 219.227C442.784 222.04 445.663 225.012 448.381 228.058L446.889 229.39ZM239.595 216.956L238.272 215.457C241.332 212.756 244.542 210.148 247.814 207.706L249.01 209.308C245.782 211.718 242.615 214.291 239.595 216.956ZM429.323 212.683C426.186 210.155 422.905 207.725 419.572 205.464L420.695 203.808C424.073 206.101 427.398 208.563 430.578 211.125L429.323 212.683ZM259.018 202.46L257.958 200.765C261.42 198.599 265.013 196.553 268.637 194.682L269.554 196.46C265.979 198.305 262.435 200.324 259.018 202.46ZM409.262 199.07C405.748 197.087 402.113 195.229 398.458 193.548L399.294 191.73C402.999 193.435 406.683 195.318 410.245 197.327L409.262 199.07ZM280.547 191.35L279.779 189.503C283.548 187.938 287.428 186.512 291.31 185.264L291.921 187.169C288.092 188.399 284.265 189.806 280.547 191.35ZM387.235 188.937C383.45 187.563 379.559 186.331 375.669 185.275L376.193 183.345C380.136 184.415 384.081 185.664 387.918 187.057L387.235 188.937ZM303.612 183.943L303.161 181.994C307.132 181.074 311.197 180.307 315.24 179.717L315.529 181.696C311.54 182.279 307.531 183.035 303.612 183.943V183.943ZM363.839 182.584C359.886 181.856 355.845 181.283 351.83 180.881L352.029 178.891C356.099 179.298 360.194 179.879 364.201 180.618L363.839 182.584ZM327.591 180.438L327.465 178.442C331.533 178.185 335.681 178.094 339.756 178.168L339.72 180.168C335.695 180.094 331.606 180.185 327.591 180.438Z" fill="#3F3D56" />
        <path d="M478.746 287.424C478.21 285.521 477.628 283.602 477.015 281.722L478.917 281.102C479.538 283.008 480.128 284.953 480.67 286.882L478.746 287.424Z" fill="#3F3D56" />
        <path d="M466.55 175.423H464.55C464.55 173.422 464.585 171.391 464.655 169.388L466.654 169.457C466.585 171.438 466.55 173.445 466.55 175.423Z" fill="#3F3D56" />
        <path d="M467.502 157.431L465.513 157.219C465.941 153.191 466.521 149.131 467.236 145.15L469.205 145.504C468.498 149.437 467.925 153.451 467.502 157.431ZM471.76 133.73L469.822 133.236C470.823 129.31 471.98 125.375 473.261 121.538L475.158 122.171C473.893 125.963 472.75 129.851 471.76 133.73ZM790.723 112.629C789.228 108.918 787.578 105.215 785.82 101.624L787.617 100.745C789.396 104.379 791.064 108.126 792.578 111.882L790.723 112.629ZM479.385 110.876L477.539 110.108C479.094 106.37 480.806 102.639 482.629 99.0184L484.416 99.9178C482.614 103.496 480.922 107.183 479.385 110.876ZM780.139 90.9979C778.128 87.5419 775.966 84.1127 773.711 80.806L775.363 79.679C777.646 83.0252 779.833 86.4949 781.867 89.992L780.139 90.9979ZM490.221 89.3509L488.503 88.3255C490.576 84.8529 492.805 81.4066 495.127 78.0828L496.767 79.2284C494.472 82.513 492.269 85.9188 490.221 89.3509H490.221ZM766.57 71.099C764.083 67.9598 761.454 64.8734 758.756 61.9251L760.23 60.5745C762.961 63.5579 765.622 66.6805 768.139 69.8568L766.57 71.099ZM504.02 69.6009L502.466 68.3411C505.017 65.1947 507.713 62.1019 510.479 59.1488L511.939 60.5159C509.205 63.4349 506.541 66.4915 504.02 69.6009ZM750.308 53.3309C747.4 50.578 744.359 47.8963 741.268 45.3597L742.535 43.8138C745.664 46.3797 748.741 49.0936 751.683 51.8788L750.308 53.3309ZM520.484 52.0194L519.125 50.5516C522.095 47.8021 525.202 45.1239 528.36 42.5921L529.611 44.1527C526.49 46.6551 523.419 49.3016 520.484 52.0194V52.0194ZM731.683 38.0531C728.415 35.7416 725.023 33.5199 721.601 31.4496L722.636 29.7386C726.099 31.8333 729.531 34.0814 732.837 36.4203L731.683 38.0531ZM539.274 36.9574L538.137 35.3119C541.467 33.013 544.922 30.8055 548.409 28.7499L549.424 30.4725C545.979 32.5042 542.564 34.6859 539.274 36.9574V36.9574ZM711.071 25.5858C707.506 23.7645 703.831 22.0516 700.147 20.4935L700.927 18.6517C704.654 20.2279 708.373 21.9618 711.981 23.8045L711.071 25.5858ZM560.012 24.7328L559.122 22.9418C562.745 21.143 566.479 19.453 570.222 17.9193L570.981 19.7699C567.282 21.2855 563.592 22.9554 560.012 24.7328V24.7328ZM688.885 16.202C685.102 14.9139 681.218 13.747 677.342 12.7338L677.848 10.7992C681.77 11.8241 685.701 13.0052 689.529 14.3085L688.885 16.202ZM582.275 15.6102L581.652 13.7098C585.496 12.4501 589.438 11.3138 593.368 10.3328L593.852 12.2733C589.968 13.2425 586.073 14.3651 582.275 15.6102L582.275 15.6102ZM665.581 10.1092C661.648 9.37923 657.639 8.78306 653.663 8.33677L653.886 6.34947C657.909 6.80113 661.967 7.40415 665.946 8.14247L665.581 10.1092ZM605.639 9.78013L605.296 7.80943C609.281 7.11558 613.344 6.55743 617.374 6.14976L617.575 8.13999C613.593 8.54232 609.577 9.09407 605.639 9.78011L605.639 9.78013ZM641.648 7.41978C637.643 7.25718 633.572 7.2357 629.598 7.35435L629.537 5.35535C633.56 5.23524 637.678 5.25623 641.73 5.42176L641.648 7.41978Z" fill="#3F3D56" />
        <path d="M796.573 129.791C796.038 127.888 795.46 125.966 794.856 124.079L796.761 123.47C797.372 125.379 797.957 127.323 798.499 129.249L796.573 129.791Z" fill="#3F3D56" />
        <path d="M212.07 435.649C230.468 435.649 245.383 434.53 245.383 433.15C245.383 431.771 230.468 430.652 212.07 430.652C193.672 430.652 178.758 431.771 178.758 433.15C178.758 434.53 193.672 435.649 212.07 435.649Z" fill="#6C63FF" />
        <path d="M477.737 314.891C496.135 314.891 511.049 313.773 511.049 312.393C511.049 311.013 496.135 309.894 477.737 309.894C459.339 309.894 444.424 311.013 444.424 312.393C444.424 313.773 459.339 314.891 477.737 314.891Z" fill="#6C63FF" />
        <path d="M805.864 189.137C824.262 189.137 839.177 188.018 839.177 186.638C839.177 185.259 824.262 184.14 805.864 184.14C787.466 184.14 772.552 185.259 772.552 186.638C772.552 188.018 787.466 189.137 805.864 189.137Z" fill="#6C63FF" />
        <path d="M792.665 178.436L692.495 278.606L693.909 280.02L794.079 179.85L792.665 178.436Z" fill="#3F3D56" />
        <path d="M663.454 291.405H495.226V293.405H663.454V291.405Z" fill="#3F3D56" />
        <path d="M464.521 305.04L370.43 399.131L371.844 400.545L465.935 306.454L464.521 305.04Z" fill="#3F3D56" />
        <path d="M341.989 412.163H229.559V414.163H341.989V412.163Z" fill="#3F3D56" />
        <path d="M198.997 424.822L87.2743 536.545L88.6884 537.959L200.411 426.236L198.997 424.822Z" fill="#3F3D56" />
        <path d="M212.07 431.652C208.413 431.652 204.839 430.568 201.798 428.536C198.758 426.505 196.388 423.617 194.988 420.239C193.589 416.86 193.222 413.143 193.936 409.556C194.649 405.97 196.41 402.675 198.996 400.089C201.582 397.503 204.876 395.742 208.463 395.029C212.049 394.316 215.767 394.682 219.145 396.081C222.524 397.48 225.411 399.85 227.443 402.891C229.475 405.931 230.559 409.506 230.559 413.163C230.554 418.065 228.604 422.764 225.138 426.231C221.672 429.697 216.972 431.646 212.07 431.652ZM212.07 396.674C208.809 396.674 205.621 397.641 202.909 399.452C200.198 401.264 198.084 403.839 196.836 406.852C195.588 409.865 195.261 413.181 195.897 416.38C196.534 419.578 198.104 422.516 200.41 424.822C202.716 427.128 205.654 428.699 208.853 429.335C212.051 429.972 215.367 429.645 218.38 428.397C221.393 427.149 223.968 425.036 225.78 422.324C227.592 419.612 228.559 416.424 228.559 413.163C228.554 408.791 226.815 404.6 223.724 401.509C220.633 398.418 216.442 396.679 212.07 396.674Z" fill="#3F3D56" />
        <path d="M359.478 431.652C355.821 431.652 352.246 430.568 349.205 428.536C346.165 426.505 343.795 423.617 342.396 420.238C340.996 416.86 340.63 413.142 341.344 409.556C342.057 405.969 343.818 402.675 346.404 400.089C348.989 397.503 352.284 395.742 355.87 395.029C359.457 394.316 363.175 394.682 366.553 396.081C369.931 397.48 372.819 399.85 374.851 402.891C376.882 405.931 377.967 409.506 377.967 413.163C377.961 418.065 376.012 422.765 372.545 426.231C369.079 429.697 364.38 431.647 359.478 431.652ZM359.478 396.674C356.216 396.674 353.028 397.641 350.317 399.453C347.605 401.264 345.491 403.84 344.243 406.853C342.995 409.866 342.669 413.181 343.305 416.38C343.941 419.578 345.512 422.517 347.818 424.823C350.124 427.129 353.062 428.699 356.261 429.335C359.459 429.972 362.775 429.645 365.788 428.397C368.801 427.149 371.376 425.035 373.188 422.324C375 419.612 375.967 416.424 375.967 413.163C375.962 408.791 374.223 404.6 371.132 401.509C368.04 398.417 363.849 396.679 359.478 396.674Z" fill="#3F3D56" />
        <path d="M477.737 310.894C474.08 310.894 470.505 309.81 467.465 307.778C464.424 305.747 462.055 302.859 460.655 299.481C459.256 296.102 458.89 292.385 459.603 288.798C460.317 285.212 462.078 281.917 464.663 279.332C467.249 276.746 470.543 274.985 474.13 274.272C477.716 273.558 481.434 273.924 484.812 275.324C488.191 276.723 491.078 279.093 493.11 282.133C495.142 285.174 496.226 288.748 496.226 292.405C496.221 297.307 494.271 302.007 490.805 305.473C487.338 308.939 482.639 310.889 477.737 310.894ZM477.737 275.916C474.476 275.916 471.288 276.884 468.576 278.695C465.864 280.507 463.751 283.083 462.503 286.096C461.255 289.109 460.929 292.424 461.565 295.622C462.201 298.821 463.772 301.759 466.078 304.065C468.384 306.371 471.322 307.941 474.52 308.578C477.719 309.214 481.034 308.887 484.047 307.639C487.06 306.391 489.635 304.278 491.447 301.566C493.259 298.854 494.226 295.666 494.226 292.405C494.221 288.033 492.482 283.842 489.391 280.751C486.3 277.66 482.108 275.921 477.737 275.916V275.916Z" fill="#3F3D56" />
        <path d="M680.942 310.894C677.286 310.894 673.711 309.81 670.671 307.778C667.63 305.747 665.26 302.859 663.861 299.481C662.462 296.102 662.095 292.385 662.809 288.798C663.522 285.212 665.283 281.917 667.869 279.332C670.455 276.746 673.749 274.985 677.336 274.272C680.922 273.558 684.64 273.924 688.018 275.324C691.396 276.723 694.284 279.093 696.316 282.133C698.347 285.174 699.432 288.748 699.432 292.405C699.426 297.307 697.476 302.007 694.01 305.473C690.544 308.939 685.844 310.889 680.942 310.894ZM680.942 275.916C677.681 275.916 674.493 276.884 671.782 278.695C669.07 280.507 666.957 283.083 665.709 286.096C664.461 289.109 664.134 292.424 664.771 295.622C665.407 298.821 666.977 301.759 669.283 304.065C671.589 306.371 674.527 307.941 677.726 308.578C680.925 309.214 684.24 308.887 687.253 307.639C690.266 306.391 692.841 304.278 694.653 301.566C696.465 298.854 697.432 295.666 697.432 292.405C697.427 288.033 695.688 283.842 692.597 280.751C689.505 277.66 685.314 275.921 680.942 275.916V275.916Z" fill="#3F3D56" />
        <path d="M805.864 185.14C802.207 185.14 798.633 184.056 795.592 182.024C792.552 179.992 790.182 177.105 788.783 173.726C787.383 170.348 787.017 166.63 787.731 163.044C788.444 159.457 790.205 156.163 792.791 153.577C795.377 150.992 798.671 149.231 802.257 148.517C805.844 147.804 809.561 148.17 812.94 149.569C816.318 150.969 819.206 153.338 821.237 156.379C823.269 159.419 824.353 162.994 824.354 166.651C824.348 171.553 822.398 176.252 818.932 179.718C815.466 183.185 810.766 185.134 805.864 185.14ZM805.864 150.162C802.603 150.162 799.415 151.129 796.703 152.941C793.992 154.753 791.879 157.328 790.631 160.341C789.383 163.354 789.056 166.67 789.692 169.868C790.329 173.067 791.899 176.005 794.205 178.311C796.511 180.617 799.449 182.187 802.648 182.823C805.846 183.459 809.162 183.133 812.175 181.885C815.188 180.637 817.763 178.523 819.575 175.812C821.387 173.1 822.354 169.912 822.354 166.651C822.348 162.279 820.61 158.088 817.518 154.997C814.427 151.906 810.236 150.167 805.864 150.162V150.162Z" fill="#3F3D56" />
        <path d="M75.4892 568.233C71.8324 568.233 68.2576 567.149 65.217 565.117C62.1764 563.086 59.8065 560.198 58.407 556.82C57.0076 553.441 56.6413 549.724 57.3547 546.137C58.0681 542.551 59.8289 539.256 62.4147 536.67C65.0004 534.084 68.2949 532.323 71.8815 531.61C75.4681 530.897 79.1857 531.263 82.5642 532.662C85.9427 534.061 88.8303 536.431 90.862 539.472C92.8936 542.512 93.978 546.087 93.978 549.744C93.9725 554.646 92.0228 559.345 88.5567 562.812C85.0906 566.278 80.3911 568.228 75.4892 568.233ZM75.4892 533.255C72.228 533.255 69.0399 534.222 66.3282 536.033C63.6165 537.845 61.5029 540.42 60.2548 543.433C59.0067 546.447 58.6801 549.762 59.3163 552.961C59.9525 556.159 61.5229 559.097 63.8289 561.403C66.135 563.71 69.0731 565.28 72.2717 565.916C75.4703 566.553 78.7858 566.226 81.7988 564.978C84.8118 563.73 87.3871 561.617 89.199 558.905C91.0109 556.193 91.978 553.005 91.978 549.744C91.973 545.372 90.2342 541.181 87.1431 538.09C84.0519 534.999 79.8608 533.26 75.4892 533.255Z" fill="#3F3D56" />
        <path d="M212.07 304.065C207.696 304.065 203.364 304.926 199.322 306.6C195.28 308.275 191.608 310.728 188.515 313.822C185.421 316.915 182.968 320.587 181.294 324.629C179.619 328.671 178.758 333.002 178.758 337.377C178.758 355.775 212.07 416.494 212.07 416.494C212.07 416.494 245.383 355.775 245.383 337.377C245.383 333.002 244.521 328.671 242.847 324.629C241.173 320.587 238.719 316.915 235.626 313.822C232.532 310.728 228.86 308.275 224.818 306.6C220.777 304.926 216.445 304.065 212.07 304.065ZM212.07 354.866C208.611 354.866 205.23 353.84 202.354 351.919C199.478 349.997 197.236 347.266 195.912 344.07C194.589 340.874 194.242 337.358 194.917 333.965C195.592 330.573 197.258 327.456 199.704 325.011C202.149 322.565 205.266 320.899 208.658 320.224C212.051 319.549 215.567 319.896 218.763 321.219C221.959 322.543 224.69 324.785 226.612 327.661C228.533 330.537 229.559 333.918 229.559 337.377C229.559 342.016 227.717 346.464 224.437 349.744C221.157 353.024 216.709 354.866 212.07 354.866Z" fill="#6C63FF" />
        <path d="M477.737 179.143C468.902 179.143 460.429 182.653 454.181 188.9C447.934 195.147 444.424 203.621 444.424 212.456C444.424 230.853 477.737 291.573 477.737 291.573C477.737 291.573 511.049 230.853 511.049 212.456C511.049 208.081 510.188 203.749 508.514 199.707C506.839 195.666 504.386 191.993 501.292 188.9C498.199 185.807 494.527 183.353 490.485 181.679C486.443 180.005 482.112 179.143 477.737 179.143ZM477.737 229.945C474.278 229.945 470.897 228.919 468.02 226.997C465.144 225.075 462.903 222.344 461.579 219.148C460.255 215.953 459.909 212.436 460.584 209.044C461.259 205.651 462.924 202.535 465.37 200.089C467.816 197.643 470.932 195.977 474.325 195.303C477.717 194.628 481.234 194.974 484.43 196.298C487.625 197.621 490.357 199.863 492.278 202.739C494.2 205.615 495.226 208.997 495.226 212.456C495.226 217.094 493.383 221.542 490.103 224.822C486.824 228.102 482.375 229.945 477.737 229.945Z" fill="#6C63FF" />
        <path d="M805.864 59.2183C801.49 59.2183 797.158 60.08 793.116 61.7541C789.075 63.4282 785.402 65.8819 782.309 68.9753C779.215 72.0686 776.762 75.741 775.088 79.7826C773.414 83.8243 772.552 88.1561 772.552 92.5307C772.552 110.929 805.864 171.648 805.864 171.648C805.864 171.648 839.177 110.929 839.177 92.5307C839.177 88.1561 838.315 83.8243 836.641 79.7826C834.967 75.741 832.513 72.0686 829.42 68.9753C826.326 65.8819 822.654 63.4282 818.612 61.7541C814.571 60.08 810.239 59.2183 805.864 59.2183ZM805.864 110.02C802.405 110.02 799.024 108.994 796.148 107.072C793.272 105.151 791.03 102.419 789.707 99.2235C788.383 96.0278 788.037 92.5114 788.711 89.1188C789.386 85.7263 791.052 82.6101 793.498 80.1642C795.944 77.7183 799.06 76.0526 802.452 75.3778C805.845 74.703 809.361 75.0493 812.557 76.373C815.753 77.6967 818.484 79.9383 820.406 82.8144C822.328 85.6904 823.353 89.0718 823.353 92.5308C823.353 97.1691 821.511 101.618 818.231 104.897C814.951 108.177 810.503 110.02 805.864 110.02Z" fill="#6C63FF" />
        <path d="M537.32 679.049C547.275 679.049 555.346 670.978 555.346 661.023C555.346 651.068 547.275 642.998 537.32 642.998C527.365 642.998 519.295 651.068 519.295 661.023C519.295 670.978 527.365 679.049 537.32 679.049Z" fill="#F1F1F1" />
        <path d="M649.467 602.803C659.422 602.803 667.492 594.733 667.492 584.778C667.492 574.823 659.422 566.753 649.467 566.753C639.512 566.753 631.442 574.823 631.442 584.778C631.442 594.733 639.512 602.803 649.467 602.803Z" fill="#F1F1F1" />
        <path d="M510.779 531.81C520.734 531.81 528.804 523.739 528.804 513.784C528.804 503.829 520.734 495.759 510.779 495.759C500.824 495.759 492.754 503.829 492.754 513.784C492.754 523.739 500.824 531.81 510.779 531.81Z" fill="#F1F1F1" />
        <path d="M453.623 368.689C453.623 370.64 453.295 372.344 452.639 373.803C451.982 375.252 451.053 376.359 449.85 377.125C448.646 377.891 447.243 378.273 445.639 378.273C444.071 378.273 442.681 377.891 441.469 377.125C440.257 376.35 439.313 375.252 438.639 373.83C437.973 372.399 437.632 370.745 437.613 368.867V367.432C437.613 365.518 437.946 363.827 438.611 362.359C439.277 360.892 440.215 359.771 441.428 358.996C442.649 358.212 444.044 357.82 445.611 357.82C447.206 357.82 448.61 358.208 449.822 358.982C451.044 359.748 451.982 360.865 452.639 362.332C453.295 363.79 453.623 365.49 453.623 367.432V368.689ZM451.012 367.404C451.012 365.044 450.538 363.234 449.59 361.977C448.642 360.71 447.316 360.076 445.611 360.076C443.952 360.076 442.645 360.71 441.688 361.977C440.74 363.234 440.252 364.984 440.225 367.227V368.689C440.225 370.977 440.703 372.777 441.66 374.09C442.626 375.393 443.952 376.045 445.639 376.045C447.334 376.045 448.646 375.43 449.576 374.199C450.506 372.96 450.984 371.187 451.012 368.881V367.404ZM459.557 363.207L459.639 365.066C460.769 363.645 462.245 362.934 464.068 362.934C467.195 362.934 468.771 364.697 468.799 368.225V378H466.27V368.211C466.26 367.145 466.014 366.356 465.531 365.846C465.057 365.335 464.314 365.08 463.303 365.08C462.482 365.08 461.762 365.299 461.143 365.736C460.523 366.174 460.04 366.748 459.693 367.459V378H457.164V363.207H459.557ZM481.227 374.076C481.227 373.393 480.967 372.864 480.447 372.49C479.937 372.107 479.039 371.779 477.754 371.506C476.478 371.232 475.462 370.904 474.705 370.521C473.958 370.139 473.402 369.683 473.037 369.154C472.682 368.626 472.504 367.997 472.504 367.268C472.504 366.055 473.014 365.03 474.035 364.191C475.065 363.353 476.378 362.934 477.973 362.934C479.65 362.934 481.008 363.367 482.047 364.232C483.095 365.098 483.619 366.206 483.619 367.555H481.076C481.076 366.862 480.78 366.265 480.188 365.764C479.604 365.262 478.866 365.012 477.973 365.012C477.052 365.012 476.332 365.212 475.812 365.613C475.293 366.014 475.033 366.538 475.033 367.186C475.033 367.796 475.275 368.257 475.758 368.566C476.241 368.876 477.111 369.173 478.369 369.455C479.636 369.738 480.661 370.075 481.445 370.467C482.229 370.859 482.808 371.333 483.182 371.889C483.564 372.436 483.756 373.105 483.756 373.898C483.756 375.22 483.227 376.282 482.17 377.084C481.113 377.877 479.741 378.273 478.055 378.273C476.87 378.273 475.822 378.064 474.91 377.645C473.999 377.225 473.283 376.642 472.764 375.895C472.253 375.138 471.998 374.322 471.998 373.447H474.527C474.573 374.295 474.91 374.969 475.539 375.471C476.177 375.963 477.016 376.209 478.055 376.209C479.012 376.209 479.777 376.018 480.352 375.635C480.935 375.243 481.227 374.723 481.227 374.076ZM489.799 378H487.27V363.207H489.799V378ZM487.064 359.283C487.064 358.873 487.188 358.527 487.434 358.244C487.689 357.962 488.062 357.82 488.555 357.82C489.047 357.82 489.421 357.962 489.676 358.244C489.931 358.527 490.059 358.873 490.059 359.283C490.059 359.693 489.931 360.035 489.676 360.309C489.421 360.582 489.047 360.719 488.555 360.719C488.062 360.719 487.689 360.582 487.434 360.309C487.188 360.035 487.064 359.693 487.064 359.283ZM497.291 359.625V363.207H500.053V365.162H497.291V374.336C497.291 374.928 497.414 375.375 497.66 375.676C497.906 375.967 498.326 376.113 498.918 376.113C499.21 376.113 499.611 376.059 500.121 375.949V378C499.456 378.182 498.809 378.273 498.18 378.273C497.049 378.273 496.197 377.932 495.623 377.248C495.049 376.564 494.762 375.594 494.762 374.336V365.162H492.068V363.207H494.762V359.625H497.291ZM509.158 378.273C507.153 378.273 505.521 377.617 504.264 376.305C503.006 374.983 502.377 373.219 502.377 371.014V370.549C502.377 369.081 502.655 367.773 503.211 366.625C503.776 365.467 504.56 364.565 505.562 363.918C506.574 363.262 507.668 362.934 508.844 362.934C510.767 362.934 512.262 363.567 513.328 364.834C514.395 366.101 514.928 367.915 514.928 370.275V371.328H504.906C504.943 372.786 505.367 373.967 506.178 374.869C506.998 375.762 508.037 376.209 509.295 376.209C510.188 376.209 510.945 376.027 511.564 375.662C512.184 375.298 512.727 374.814 513.191 374.213L514.736 375.416C513.497 377.321 511.637 378.273 509.158 378.273ZM508.844 365.012C507.823 365.012 506.966 365.385 506.273 366.133C505.581 366.871 505.152 367.91 504.988 369.25H512.398V369.059C512.326 367.773 511.979 366.78 511.359 366.078C510.74 365.367 509.901 365.012 508.844 365.012ZM530.746 376.209C531.648 376.209 532.437 375.936 533.111 375.389C533.786 374.842 534.16 374.158 534.232 373.338H536.625C536.579 374.186 536.288 374.992 535.75 375.758C535.212 376.523 534.492 377.134 533.59 377.59C532.697 378.046 531.749 378.273 530.746 378.273C528.732 378.273 527.128 377.604 525.934 376.264C524.749 374.915 524.156 373.074 524.156 370.74V370.316C524.156 368.876 524.421 367.596 524.949 366.475C525.478 365.354 526.234 364.483 527.219 363.863C528.212 363.243 529.383 362.934 530.732 362.934C532.391 362.934 533.768 363.43 534.861 364.424C535.964 365.417 536.552 366.707 536.625 368.293H534.232C534.16 367.336 533.795 366.552 533.139 365.941C532.492 365.322 531.689 365.012 530.732 365.012C529.447 365.012 528.449 365.477 527.738 366.406C527.036 367.327 526.686 368.662 526.686 370.412V370.891C526.686 372.595 527.036 373.908 527.738 374.828C528.44 375.749 529.443 376.209 530.746 376.209ZM538.799 370.467C538.799 369.018 539.081 367.714 539.646 366.557C540.221 365.399 541.014 364.506 542.025 363.877C543.046 363.248 544.208 362.934 545.512 362.934C547.526 362.934 549.153 363.631 550.393 365.025C551.641 366.42 552.266 368.275 552.266 370.59V370.768C552.266 372.208 551.988 373.502 551.432 374.65C550.885 375.79 550.096 376.678 549.066 377.316C548.046 377.954 546.87 378.273 545.539 378.273C543.534 378.273 541.907 377.576 540.658 376.182C539.419 374.787 538.799 372.941 538.799 370.645V370.467ZM541.342 370.768C541.342 372.408 541.72 373.725 542.477 374.719C543.242 375.712 544.263 376.209 545.539 376.209C546.824 376.209 547.845 375.708 548.602 374.705C549.358 373.693 549.736 372.281 549.736 370.467C549.736 368.844 549.349 367.532 548.574 366.529C547.809 365.518 546.788 365.012 545.512 365.012C544.263 365.012 543.256 365.508 542.49 366.502C541.725 367.495 541.342 368.917 541.342 370.768ZM560.701 370.576H554.029V368.512H560.701V370.576ZM562.506 370.467C562.506 369.018 562.788 367.714 563.354 366.557C563.928 365.399 564.721 364.506 565.732 363.877C566.753 363.248 567.915 362.934 569.219 362.934C571.233 362.934 572.86 363.631 574.1 365.025C575.348 366.42 575.973 368.275 575.973 370.59V370.768C575.973 372.208 575.695 373.502 575.139 374.65C574.592 375.79 573.803 376.678 572.773 377.316C571.753 377.954 570.577 378.273 569.246 378.273C567.241 378.273 565.614 377.576 564.365 376.182C563.126 374.787 562.506 372.941 562.506 370.645V370.467ZM565.049 370.768C565.049 372.408 565.427 373.725 566.184 374.719C566.949 375.712 567.97 376.209 569.246 376.209C570.531 376.209 571.552 375.708 572.309 374.705C573.065 373.693 573.443 372.281 573.443 370.467C573.443 368.844 573.056 367.532 572.281 366.529C571.516 365.518 570.495 365.012 569.219 365.012C567.97 365.012 566.963 365.508 566.197 366.502C565.432 367.495 565.049 368.917 565.049 370.768ZM586.295 365.477C585.912 365.413 585.497 365.381 585.051 365.381C583.392 365.381 582.266 366.087 581.674 367.5V378H579.145V363.207H581.605L581.646 364.916C582.476 363.594 583.652 362.934 585.174 362.934C585.666 362.934 586.04 362.997 586.295 363.125V365.477ZM587.744 370.48C587.744 368.211 588.282 366.388 589.357 365.012C590.433 363.626 591.841 362.934 593.582 362.934C595.314 362.934 596.686 363.526 597.697 364.711V357H600.227V378H597.902L597.779 376.414C596.768 377.654 595.359 378.273 593.555 378.273C591.841 378.273 590.442 377.572 589.357 376.168C588.282 374.764 587.744 372.932 587.744 370.672V370.48ZM590.273 370.768C590.273 372.445 590.62 373.757 591.312 374.705C592.005 375.653 592.962 376.127 594.184 376.127C595.788 376.127 596.959 375.407 597.697 373.967V367.172C596.941 365.777 595.779 365.08 594.211 365.08C592.971 365.08 592.005 365.559 591.312 366.516C590.62 367.473 590.273 368.89 590.273 370.768ZM606.912 378H604.383V363.207H606.912V378ZM604.178 359.283C604.178 358.873 604.301 358.527 604.547 358.244C604.802 357.962 605.176 357.82 605.668 357.82C606.16 357.82 606.534 357.962 606.789 358.244C607.044 358.527 607.172 358.873 607.172 359.283C607.172 359.693 607.044 360.035 606.789 360.309C606.534 360.582 606.16 360.719 605.668 360.719C605.176 360.719 604.802 360.582 604.547 360.309C604.301 360.035 604.178 359.693 604.178 359.283ZM613.365 363.207L613.447 365.066C614.577 363.645 616.054 362.934 617.877 362.934C621.003 362.934 622.58 364.697 622.607 368.225V378H620.078V368.211C620.069 367.145 619.823 366.356 619.34 365.846C618.866 365.335 618.123 365.08 617.111 365.08C616.291 365.08 615.571 365.299 614.951 365.736C614.331 366.174 613.848 366.748 613.502 367.459V378H610.973V363.207H613.365ZM635.555 378C635.409 377.708 635.29 377.189 635.199 376.441C634.023 377.663 632.62 378.273 630.988 378.273C629.53 378.273 628.331 377.863 627.393 377.043C626.463 376.214 625.998 375.165 625.998 373.898C625.998 372.358 626.581 371.164 627.748 370.316C628.924 369.46 630.574 369.031 632.697 369.031H635.158V367.869C635.158 366.985 634.894 366.283 634.365 365.764C633.837 365.235 633.057 364.971 632.027 364.971C631.125 364.971 630.368 365.199 629.758 365.654C629.147 366.11 628.842 366.661 628.842 367.309H626.299C626.299 366.57 626.559 365.859 627.078 365.176C627.607 364.483 628.318 363.936 629.211 363.535C630.113 363.134 631.102 362.934 632.178 362.934C633.882 362.934 635.217 363.362 636.184 364.219C637.15 365.066 637.651 366.238 637.688 367.732V374.541C637.688 375.899 637.861 376.979 638.207 377.781V378H635.555ZM631.357 376.072C632.15 376.072 632.902 375.867 633.613 375.457C634.324 375.047 634.839 374.514 635.158 373.857V370.822H633.176C630.077 370.822 628.527 371.729 628.527 373.543C628.527 374.336 628.792 374.956 629.32 375.402C629.849 375.849 630.528 376.072 631.357 376.072ZM645.084 359.625V363.207H647.846V365.162H645.084V374.336C645.084 374.928 645.207 375.375 645.453 375.676C645.699 375.967 646.118 376.113 646.711 376.113C647.003 376.113 647.404 376.059 647.914 375.949V378C647.249 378.182 646.602 378.273 645.973 378.273C644.842 378.273 643.99 377.932 643.416 377.248C642.842 376.564 642.555 375.594 642.555 374.336V365.162H639.861V363.207H642.555V359.625H645.084ZM649.869 370.467C649.869 369.018 650.152 367.714 650.717 366.557C651.291 365.399 652.084 364.506 653.096 363.877C654.117 363.248 655.279 362.934 656.582 362.934C658.596 362.934 660.223 363.631 661.463 365.025C662.712 366.42 663.336 368.275 663.336 370.59V370.768C663.336 372.208 663.058 373.502 662.502 374.65C661.955 375.79 661.167 376.678 660.137 377.316C659.116 377.954 657.94 378.273 656.609 378.273C654.604 378.273 652.977 377.576 651.729 376.182C650.489 374.787 649.869 372.941 649.869 370.645V370.467ZM652.412 370.768C652.412 372.408 652.79 373.725 653.547 374.719C654.312 375.712 655.333 376.209 656.609 376.209C657.895 376.209 658.915 375.708 659.672 374.705C660.428 373.693 660.807 372.281 660.807 370.467C660.807 368.844 660.419 367.532 659.645 366.529C658.879 365.518 657.858 365.012 656.582 365.012C655.333 365.012 654.326 365.508 653.561 366.502C652.795 367.495 652.412 368.917 652.412 370.768ZM673.658 365.477C673.275 365.413 672.861 365.381 672.414 365.381C670.755 365.381 669.63 366.087 669.037 367.5V378H666.508V363.207H668.969L669.01 364.916C669.839 363.594 671.015 362.934 672.537 362.934C673.029 362.934 673.403 362.997 673.658 363.125V365.477Z" fill="#6C63FF" />
        <path d="M573.311 175V155.094H578.93C580.661 155.094 582.193 155.477 583.523 156.242C584.854 157.008 585.88 158.097 586.6 159.51C587.329 160.923 587.698 162.545 587.707 164.377V165.648C587.707 167.526 587.342 169.171 586.613 170.584C585.893 171.997 584.859 173.081 583.51 173.838C582.17 174.594 580.607 174.982 578.82 175H573.311ZM575.936 157.254V172.854H578.697C580.721 172.854 582.293 172.225 583.414 170.967C584.544 169.709 585.109 167.918 585.109 165.594V164.432C585.109 162.171 584.576 160.417 583.51 159.168C582.452 157.91 580.949 157.272 578.998 157.254H575.936ZM594.037 175H591.508V160.207H594.037V175ZM591.303 156.283C591.303 155.873 591.426 155.527 591.672 155.244C591.927 154.962 592.301 154.82 592.793 154.82C593.285 154.82 593.659 154.962 593.914 155.244C594.169 155.527 594.297 155.873 594.297 156.283C594.297 156.693 594.169 157.035 593.914 157.309C593.659 157.582 593.285 157.719 592.793 157.719C592.301 157.719 591.927 157.582 591.672 157.309C591.426 157.035 591.303 156.693 591.303 156.283ZM597.496 167.48C597.496 165.174 598.029 163.342 599.096 161.984C600.162 160.617 601.575 159.934 603.334 159.934C605.139 159.934 606.547 160.572 607.559 161.848L607.682 160.207H609.992V174.645C609.992 176.559 609.423 178.067 608.283 179.17C607.153 180.273 605.631 180.824 603.717 180.824C602.65 180.824 601.607 180.596 600.586 180.141C599.565 179.685 598.786 179.061 598.248 178.268L599.561 176.75C600.645 178.09 601.971 178.76 603.539 178.76C604.77 178.76 605.727 178.413 606.41 177.721C607.103 177.028 607.449 176.053 607.449 174.795V173.523C606.438 174.69 605.057 175.273 603.307 175.273C601.575 175.273 600.171 174.576 599.096 173.182C598.029 171.787 597.496 169.887 597.496 167.48ZM600.039 167.768C600.039 169.436 600.381 170.748 601.064 171.705C601.748 172.653 602.705 173.127 603.936 173.127C605.531 173.127 606.702 172.402 607.449 170.953V164.199C606.674 162.786 605.512 162.08 603.963 162.08C602.732 162.08 601.771 162.559 601.078 163.516C600.385 164.473 600.039 165.89 600.039 167.768ZM616.568 175H614.039V160.207H616.568V175ZM613.834 156.283C613.834 155.873 613.957 155.527 614.203 155.244C614.458 154.962 614.832 154.82 615.324 154.82C615.816 154.82 616.19 154.962 616.445 155.244C616.701 155.527 616.828 155.873 616.828 156.283C616.828 156.693 616.701 157.035 616.445 157.309C616.19 157.582 615.816 157.719 615.324 157.719C614.832 157.719 614.458 157.582 614.203 157.309C613.957 157.035 613.834 156.693 613.834 156.283ZM624.061 156.625V160.207H626.822V162.162H624.061V171.336C624.061 171.928 624.184 172.375 624.43 172.676C624.676 172.967 625.095 173.113 625.688 173.113C625.979 173.113 626.38 173.059 626.891 172.949V175C626.225 175.182 625.578 175.273 624.949 175.273C623.819 175.273 622.967 174.932 622.393 174.248C621.818 173.564 621.531 172.594 621.531 171.336V162.162H618.838V160.207H621.531V156.625H624.061ZM638.922 175C638.776 174.708 638.658 174.189 638.566 173.441C637.391 174.663 635.987 175.273 634.355 175.273C632.897 175.273 631.699 174.863 630.76 174.043C629.83 173.214 629.365 172.165 629.365 170.898C629.365 169.358 629.949 168.164 631.115 167.316C632.291 166.46 633.941 166.031 636.064 166.031H638.525V164.869C638.525 163.985 638.261 163.283 637.732 162.764C637.204 162.235 636.424 161.971 635.395 161.971C634.492 161.971 633.736 162.199 633.125 162.654C632.514 163.11 632.209 163.661 632.209 164.309H629.666C629.666 163.57 629.926 162.859 630.445 162.176C630.974 161.483 631.685 160.936 632.578 160.535C633.48 160.134 634.469 159.934 635.545 159.934C637.249 159.934 638.585 160.362 639.551 161.219C640.517 162.066 641.018 163.238 641.055 164.732V171.541C641.055 172.899 641.228 173.979 641.574 174.781V175H638.922ZM634.725 173.072C635.518 173.072 636.27 172.867 636.98 172.457C637.691 172.047 638.206 171.514 638.525 170.857V167.822H636.543C633.444 167.822 631.895 168.729 631.895 170.543C631.895 171.336 632.159 171.956 632.688 172.402C633.216 172.849 633.895 173.072 634.725 173.072ZM647.768 175H645.238V154H647.768V175ZM658.158 167.48C658.158 165.211 658.696 163.388 659.771 162.012C660.847 160.626 662.255 159.934 663.996 159.934C665.728 159.934 667.1 160.526 668.111 161.711V154H670.641V175H668.316L668.193 173.414C667.182 174.654 665.773 175.273 663.969 175.273C662.255 175.273 660.856 174.572 659.771 173.168C658.696 171.764 658.158 169.932 658.158 167.672V167.48ZM660.688 167.768C660.688 169.445 661.034 170.757 661.727 171.705C662.419 172.653 663.376 173.127 664.598 173.127C666.202 173.127 667.373 172.407 668.111 170.967V164.172C667.355 162.777 666.193 162.08 664.625 162.08C663.385 162.08 662.419 162.559 661.727 163.516C661.034 164.473 660.688 165.89 660.688 167.768ZM680.717 175.273C678.712 175.273 677.08 174.617 675.822 173.305C674.564 171.983 673.936 170.219 673.936 168.014V167.549C673.936 166.081 674.214 164.773 674.77 163.625C675.335 162.467 676.118 161.565 677.121 160.918C678.133 160.262 679.227 159.934 680.402 159.934C682.326 159.934 683.82 160.567 684.887 161.834C685.953 163.101 686.486 164.915 686.486 167.275V168.328H676.465C676.501 169.786 676.925 170.967 677.736 171.869C678.557 172.762 679.596 173.209 680.854 173.209C681.747 173.209 682.503 173.027 683.123 172.662C683.743 172.298 684.285 171.814 684.75 171.213L686.295 172.416C685.055 174.321 683.196 175.273 680.717 175.273ZM680.402 162.012C679.382 162.012 678.525 162.385 677.832 163.133C677.139 163.871 676.711 164.91 676.547 166.25H683.957V166.059C683.884 164.773 683.538 163.78 682.918 163.078C682.298 162.367 681.46 162.012 680.402 162.012ZM694.115 171.568L697.779 160.207H700.363L695.059 175H693.131L687.771 160.207H690.355L694.115 171.568ZM708.744 175.273C706.739 175.273 705.107 174.617 703.85 173.305C702.592 171.983 701.963 170.219 701.963 168.014V167.549C701.963 166.081 702.241 164.773 702.797 163.625C703.362 162.467 704.146 161.565 705.148 160.918C706.16 160.262 707.254 159.934 708.43 159.934C710.353 159.934 711.848 160.567 712.914 161.834C713.98 163.101 714.514 164.915 714.514 167.275V168.328H704.492C704.529 169.786 704.952 170.967 705.764 171.869C706.584 172.762 707.623 173.209 708.881 173.209C709.774 173.209 710.531 173.027 711.15 172.662C711.77 172.298 712.312 171.814 712.777 171.213L714.322 172.416C713.083 174.321 711.223 175.273 708.744 175.273ZM708.43 162.012C707.409 162.012 706.552 162.385 705.859 163.133C705.167 163.871 704.738 164.91 704.574 166.25H711.984V166.059C711.911 164.773 711.565 163.78 710.945 163.078C710.326 162.367 709.487 162.012 708.43 162.012ZM720.201 175H717.672V154H720.201V175ZM723.592 167.467C723.592 166.018 723.874 164.714 724.439 163.557C725.014 162.399 725.807 161.506 726.818 160.877C727.839 160.248 729.001 159.934 730.305 159.934C732.319 159.934 733.946 160.631 735.186 162.025C736.434 163.42 737.059 165.275 737.059 167.59V167.768C737.059 169.208 736.781 170.502 736.225 171.65C735.678 172.79 734.889 173.678 733.859 174.316C732.839 174.954 731.663 175.273 730.332 175.273C728.327 175.273 726.7 174.576 725.451 173.182C724.212 171.787 723.592 169.941 723.592 167.645V167.467ZM726.135 167.768C726.135 169.408 726.513 170.725 727.27 171.719C728.035 172.712 729.056 173.209 730.332 173.209C731.617 173.209 732.638 172.708 733.395 171.705C734.151 170.693 734.529 169.281 734.529 167.467C734.529 165.844 734.142 164.532 733.367 163.529C732.602 162.518 731.581 162.012 730.305 162.012C729.056 162.012 728.049 162.508 727.283 163.502C726.518 164.495 726.135 165.917 726.135 167.768ZM752.727 167.768C752.727 170.019 752.212 171.833 751.182 173.209C750.152 174.585 748.757 175.273 746.998 175.273C745.202 175.273 743.79 174.704 742.76 173.564V180.688H740.23V160.207H742.541L742.664 161.848C743.694 160.572 745.125 159.934 746.957 159.934C748.734 159.934 750.138 160.604 751.168 161.943C752.207 163.283 752.727 165.147 752.727 167.535V167.768ZM750.197 167.48C750.197 165.812 749.842 164.495 749.131 163.529C748.42 162.563 747.445 162.08 746.205 162.08C744.674 162.08 743.525 162.759 742.76 164.117V171.186C743.516 172.535 744.674 173.209 746.232 173.209C747.445 173.209 748.406 172.73 749.117 171.773C749.837 170.807 750.197 169.376 750.197 167.48ZM762.092 175.273C760.087 175.273 758.455 174.617 757.197 173.305C755.939 171.983 755.311 170.219 755.311 168.014V167.549C755.311 166.081 755.589 164.773 756.145 163.625C756.71 162.467 757.493 161.565 758.496 160.918C759.508 160.262 760.602 159.934 761.777 159.934C763.701 159.934 765.195 160.567 766.262 161.834C767.328 163.101 767.861 164.915 767.861 167.275V168.328H757.84C757.876 169.786 758.3 170.967 759.111 171.869C759.932 172.762 760.971 173.209 762.229 173.209C763.122 173.209 763.878 173.027 764.498 172.662C765.118 172.298 765.66 171.814 766.125 171.213L767.67 172.416C766.43 174.321 764.571 175.273 762.092 175.273ZM761.777 162.012C760.757 162.012 759.9 162.385 759.207 163.133C758.514 163.871 758.086 164.91 757.922 166.25H765.332V166.059C765.259 164.773 764.913 163.78 764.293 163.078C763.673 162.367 762.835 162.012 761.777 162.012ZM777.951 162.477C777.568 162.413 777.154 162.381 776.707 162.381C775.048 162.381 773.923 163.087 773.33 164.5V175H770.801V160.207H773.262L773.303 161.916C774.132 160.594 775.308 159.934 776.83 159.934C777.322 159.934 777.696 159.997 777.951 160.125V162.477Z" fill="#6C63FF" />
    </g>
    <path d="M7.17578 598.127C4.92448 597.48 3.28385 596.687 2.25391 595.748C1.23307 594.8 0.722656 593.633 0.722656 592.248C0.722656 590.68 1.34701 589.386 2.5957 588.365C3.85352 587.335 5.48503 586.82 7.49023 586.82C8.85742 586.82 10.0742 587.085 11.1406 587.613C12.2161 588.142 13.0456 588.871 13.6289 589.801C14.2214 590.73 14.5176 591.747 14.5176 592.85H11.8789C11.8789 591.646 11.4961 590.703 10.7305 590.02C9.96484 589.327 8.88477 588.98 7.49023 588.98C6.19596 588.98 5.18424 589.268 4.45508 589.842C3.73503 590.407 3.375 591.195 3.375 592.207C3.375 593.018 3.7168 593.706 4.40039 594.271C5.0931 594.827 6.26432 595.338 7.91406 595.803C9.57292 596.268 10.8672 596.783 11.7969 597.348C12.7357 597.904 13.4284 598.555 13.875 599.303C14.3307 600.05 14.5586 600.93 14.5586 601.941C14.5586 603.555 13.9297 604.849 12.6719 605.824C11.4141 606.79 9.73242 607.273 7.62695 607.273C6.25977 607.273 4.98372 607.014 3.79883 606.494C2.61393 605.965 1.69792 605.245 1.05078 604.334C0.41276 603.423 0.09375 602.388 0.09375 601.23H2.73242C2.73242 602.434 3.17448 603.386 4.05859 604.088C4.95182 604.781 6.14128 605.127 7.62695 605.127C9.01237 605.127 10.0742 604.844 10.8125 604.279C11.5508 603.714 11.9199 602.944 11.9199 601.969C11.9199 600.993 11.5781 600.242 10.8945 599.713C10.2109 599.175 8.97135 598.646 7.17578 598.127ZM26.6719 605.537C25.6875 606.695 24.2428 607.273 22.3379 607.273C20.7611 607.273 19.5579 606.818 18.7285 605.906C17.9082 604.986 17.4935 603.628 17.4844 601.832V592.207H20.0137V601.764C20.0137 604.006 20.9251 605.127 22.748 605.127C24.6803 605.127 25.9655 604.407 26.6035 602.967V592.207H29.1328V607H26.7266L26.6719 605.537ZM45.4844 599.768C45.4844 602.019 44.9694 603.833 43.9395 605.209C42.9095 606.585 41.515 607.273 39.7559 607.273C37.9603 607.273 36.5475 606.704 35.5176 605.564V612.688H32.9883V592.207H35.2988L35.4219 593.848C36.4518 592.572 37.8828 591.934 39.7148 591.934C41.4922 591.934 42.8958 592.604 43.9258 593.943C44.9648 595.283 45.4844 597.147 45.4844 599.535V599.768ZM42.9551 599.48C42.9551 597.812 42.5996 596.495 41.8887 595.529C41.1777 594.563 40.2025 594.08 38.9629 594.08C37.4316 594.08 36.2832 594.759 35.5176 596.117V603.186C36.2741 604.535 37.4316 605.209 38.9902 605.209C40.2025 605.209 41.1641 604.73 41.875 603.773C42.5951 602.807 42.9551 601.376 42.9551 599.48ZM61.207 599.768C61.207 602.019 60.6921 603.833 59.6621 605.209C58.6322 606.585 57.2376 607.273 55.4785 607.273C53.6829 607.273 52.2702 606.704 51.2402 605.564V612.688H48.7109V592.207H51.0215L51.1445 593.848C52.1745 592.572 53.6055 591.934 55.4375 591.934C57.2148 591.934 58.6185 592.604 59.6484 593.943C60.6875 595.283 61.207 597.147 61.207 599.535V599.768ZM58.6777 599.48C58.6777 597.812 58.3223 596.495 57.6113 595.529C56.9004 594.563 55.9251 594.08 54.6855 594.08C53.1543 594.08 52.0059 594.759 51.2402 596.117V603.186C51.9967 604.535 53.1543 605.209 54.7129 605.209C55.9251 605.209 56.8867 604.73 57.5977 603.773C58.3177 602.807 58.6777 601.376 58.6777 599.48ZM63.7637 599.467C63.7637 598.018 64.0462 596.714 64.6113 595.557C65.1855 594.399 65.9785 593.506 66.9902 592.877C68.0111 592.248 69.1732 591.934 70.4766 591.934C72.4909 591.934 74.1178 592.631 75.3574 594.025C76.6061 595.42 77.2305 597.275 77.2305 599.59V599.768C77.2305 601.208 76.9525 602.502 76.3965 603.65C75.8496 604.79 75.0612 605.678 74.0312 606.316C73.0104 606.954 71.8346 607.273 70.5039 607.273C68.4987 607.273 66.8717 606.576 65.623 605.182C64.3835 603.787 63.7637 601.941 63.7637 599.645V599.467ZM66.3066 599.768C66.3066 601.408 66.6849 602.725 67.4414 603.719C68.207 604.712 69.2279 605.209 70.5039 605.209C71.7891 605.209 72.8099 604.708 73.5664 603.705C74.3229 602.693 74.7012 601.281 74.7012 599.467C74.7012 597.844 74.3138 596.532 73.5391 595.529C72.7734 594.518 71.7526 594.012 70.4766 594.012C69.2279 594.012 68.2207 594.508 67.4551 595.502C66.6895 596.495 66.3066 597.917 66.3066 599.768ZM87.5527 594.477C87.1699 594.413 86.7552 594.381 86.3086 594.381C84.6497 594.381 83.5241 595.087 82.9316 596.5V607H80.4023V592.207H82.8633L82.9043 593.916C83.7337 592.594 84.9095 591.934 86.4316 591.934C86.9238 591.934 87.2975 591.997 87.5527 592.125V594.477ZM94.0059 588.625V592.207H96.7676V594.162H94.0059V603.336C94.0059 603.928 94.1289 604.375 94.375 604.676C94.6211 604.967 95.0404 605.113 95.6328 605.113C95.9245 605.113 96.3255 605.059 96.8359 604.949V607C96.1706 607.182 95.5234 607.273 94.8945 607.273C93.7643 607.273 92.9121 606.932 92.3379 606.248C91.7637 605.564 91.4766 604.594 91.4766 603.336V594.162H88.7832V592.207H91.4766V588.625H94.0059ZM115.812 607C115.667 606.708 115.548 606.189 115.457 605.441C114.281 606.663 112.878 607.273 111.246 607.273C109.788 607.273 108.589 606.863 107.65 606.043C106.721 605.214 106.256 604.165 106.256 602.898C106.256 601.358 106.839 600.164 108.006 599.316C109.182 598.46 110.831 598.031 112.955 598.031H115.416V596.869C115.416 595.985 115.152 595.283 114.623 594.764C114.094 594.235 113.315 593.971 112.285 593.971C111.383 593.971 110.626 594.199 110.016 594.654C109.405 595.11 109.1 595.661 109.1 596.309H106.557C106.557 595.57 106.816 594.859 107.336 594.176C107.865 593.483 108.576 592.936 109.469 592.535C110.371 592.134 111.36 591.934 112.436 591.934C114.14 591.934 115.475 592.362 116.441 593.219C117.408 594.066 117.909 595.238 117.945 596.732V603.541C117.945 604.899 118.118 605.979 118.465 606.781V607H115.812ZM111.615 605.072C112.408 605.072 113.16 604.867 113.871 604.457C114.582 604.047 115.097 603.514 115.416 602.857V599.822H113.434C110.335 599.822 108.785 600.729 108.785 602.543C108.785 603.336 109.049 603.956 109.578 604.402C110.107 604.849 110.786 605.072 111.615 605.072ZM124.303 592.207L124.385 594.066C125.515 592.645 126.992 591.934 128.814 591.934C131.941 591.934 133.518 593.697 133.545 597.225V607H131.016V597.211C131.007 596.145 130.76 595.356 130.277 594.846C129.803 594.335 129.061 594.08 128.049 594.08C127.229 594.08 126.508 594.299 125.889 594.736C125.269 595.174 124.786 595.748 124.439 596.459V607H121.91V592.207H124.303ZM146.492 607C146.346 606.708 146.228 606.189 146.137 605.441C144.961 606.663 143.557 607.273 141.926 607.273C140.467 607.273 139.269 606.863 138.33 606.043C137.4 605.214 136.936 604.165 136.936 602.898C136.936 601.358 137.519 600.164 138.686 599.316C139.861 598.46 141.511 598.031 143.635 598.031H146.096V596.869C146.096 595.985 145.831 595.283 145.303 594.764C144.774 594.235 143.995 593.971 142.965 593.971C142.062 593.971 141.306 594.199 140.695 594.654C140.085 595.11 139.779 595.661 139.779 596.309H137.236C137.236 595.57 137.496 594.859 138.016 594.176C138.544 593.483 139.255 592.936 140.148 592.535C141.051 592.134 142.04 591.934 143.115 591.934C144.82 591.934 146.155 592.362 147.121 593.219C148.087 594.066 148.589 595.238 148.625 596.732V603.541C148.625 604.899 148.798 605.979 149.145 606.781V607H146.492ZM142.295 605.072C143.088 605.072 143.84 604.867 144.551 604.457C145.262 604.047 145.777 603.514 146.096 602.857V599.822H144.113C141.014 599.822 139.465 600.729 139.465 602.543C139.465 603.336 139.729 603.956 140.258 604.402C140.786 604.849 141.465 605.072 142.295 605.072ZM155.338 607H152.809V586H155.338V607ZM164.238 603.295L167.684 592.207H170.391L164.443 609.283C163.523 611.744 162.06 612.975 160.055 612.975L159.576 612.934L158.633 612.756V610.705L159.316 610.76C160.173 610.76 160.839 610.587 161.312 610.24C161.796 609.894 162.192 609.26 162.502 608.34L163.062 606.836L157.785 592.207H160.547L164.238 603.295ZM181.273 603.076C181.273 602.393 181.014 601.864 180.494 601.49C179.984 601.107 179.086 600.779 177.801 600.506C176.525 600.232 175.508 599.904 174.752 599.521C174.005 599.139 173.449 598.683 173.084 598.154C172.729 597.626 172.551 596.997 172.551 596.268C172.551 595.055 173.061 594.03 174.082 593.191C175.112 592.353 176.424 591.934 178.02 591.934C179.697 591.934 181.055 592.367 182.094 593.232C183.142 594.098 183.666 595.206 183.666 596.555H181.123C181.123 595.862 180.827 595.265 180.234 594.764C179.651 594.262 178.913 594.012 178.02 594.012C177.099 594.012 176.379 594.212 175.859 594.613C175.34 595.014 175.08 595.538 175.08 596.186C175.08 596.796 175.322 597.257 175.805 597.566C176.288 597.876 177.158 598.173 178.416 598.455C179.683 598.738 180.708 599.075 181.492 599.467C182.276 599.859 182.855 600.333 183.229 600.889C183.611 601.436 183.803 602.105 183.803 602.898C183.803 604.22 183.274 605.282 182.217 606.084C181.16 606.877 179.788 607.273 178.102 607.273C176.917 607.273 175.868 607.064 174.957 606.645C174.046 606.225 173.33 605.642 172.811 604.895C172.3 604.138 172.045 603.322 172.045 602.447H174.574C174.62 603.295 174.957 603.969 175.586 604.471C176.224 604.963 177.062 605.209 178.102 605.209C179.059 605.209 179.824 605.018 180.398 604.635C180.982 604.243 181.273 603.723 181.273 603.076ZM190.529 588.625V592.207H193.291V594.162H190.529V603.336C190.529 603.928 190.652 604.375 190.898 604.676C191.145 604.967 191.564 605.113 192.156 605.113C192.448 605.113 192.849 605.059 193.359 604.949V607C192.694 607.182 192.047 607.273 191.418 607.273C190.288 607.273 189.436 606.932 188.861 606.248C188.287 605.564 188 604.594 188 603.336V594.162H185.307V592.207H188V588.625H190.529Z" fill="#6C63FF" />
    <path d="M13.6504 384.094H16.2891V398.189C16.2891 400.094 15.7148 401.585 14.5664 402.66C13.4271 403.736 11.9049 404.273 10 404.273C8.02214 404.273 6.48177 403.768 5.37891 402.756C4.27604 401.744 3.72461 400.327 3.72461 398.504H6.34961C6.34961 399.643 6.65951 400.532 7.2793 401.17C7.9082 401.808 8.8151 402.127 10 402.127C11.0846 402.127 11.9596 401.785 12.625 401.102C13.2995 400.418 13.6413 399.461 13.6504 398.23V384.094ZM29.4961 404C29.3503 403.708 29.2318 403.189 29.1406 402.441C27.9648 403.663 26.5612 404.273 24.9297 404.273C23.4714 404.273 22.2728 403.863 21.334 403.043C20.4043 402.214 19.9395 401.165 19.9395 399.898C19.9395 398.358 20.5228 397.164 21.6895 396.316C22.8652 395.46 24.515 395.031 26.6387 395.031H29.0996V393.869C29.0996 392.985 28.8353 392.283 28.3066 391.764C27.778 391.235 26.9987 390.971 25.9688 390.971C25.0664 390.971 24.3099 391.199 23.6992 391.654C23.0885 392.11 22.7832 392.661 22.7832 393.309H20.2402C20.2402 392.57 20.5 391.859 21.0195 391.176C21.5482 390.483 22.2591 389.936 23.1523 389.535C24.0547 389.134 25.0436 388.934 26.1191 388.934C27.8236 388.934 29.1589 389.362 30.125 390.219C31.0911 391.066 31.5924 392.238 31.6289 393.732V400.541C31.6289 401.899 31.8021 402.979 32.1484 403.781V404H29.4961ZM25.2988 402.072C26.0918 402.072 26.8438 401.867 27.5547 401.457C28.2656 401.047 28.7806 400.514 29.0996 399.857V396.822H27.1172C24.0182 396.822 22.4688 397.729 22.4688 399.543C22.4688 400.336 22.7331 400.956 23.2617 401.402C23.7904 401.849 24.4694 402.072 25.2988 402.072ZM40.2559 400.568L43.9199 389.207H46.5039L41.1992 404H39.2715L33.9121 389.207H36.4961L40.2559 400.568ZM57.8516 404C57.7057 403.708 57.5872 403.189 57.4961 402.441C56.3203 403.663 54.9167 404.273 53.2852 404.273C51.8268 404.273 50.6283 403.863 49.6895 403.043C48.7598 402.214 48.2949 401.165 48.2949 399.898C48.2949 398.358 48.8783 397.164 50.0449 396.316C51.2207 395.46 52.8704 395.031 54.9941 395.031H57.4551V393.869C57.4551 392.985 57.1908 392.283 56.6621 391.764C56.1335 391.235 55.3542 390.971 54.3242 390.971C53.4219 390.971 52.6654 391.199 52.0547 391.654C51.444 392.11 51.1387 392.661 51.1387 393.309H48.5957C48.5957 392.57 48.8555 391.859 49.375 391.176C49.9036 390.483 50.6146 389.936 51.5078 389.535C52.4102 389.134 53.3991 388.934 54.4746 388.934C56.179 388.934 57.5143 389.362 58.4805 390.219C59.4466 391.066 59.9479 392.238 59.9844 393.732V400.541C59.9844 401.899 60.1576 402.979 60.5039 403.781V404H57.8516ZM53.6543 402.072C54.4473 402.072 55.1992 401.867 55.9102 401.457C56.6211 401.047 57.1361 400.514 57.4551 399.857V396.822H55.4727C52.3737 396.822 50.8242 397.729 50.8242 399.543C50.8242 400.336 51.0885 400.956 51.6172 401.402C52.1458 401.849 52.8249 402.072 53.6543 402.072ZM70.2793 396.48C70.2793 394.211 70.8171 392.388 71.8926 391.012C72.9681 389.626 74.3763 388.934 76.1172 388.934C77.849 388.934 79.2207 389.526 80.2324 390.711V383H82.7617V404H80.4375L80.3145 402.414C79.3027 403.654 77.8945 404.273 76.0898 404.273C74.3763 404.273 72.9772 403.572 71.8926 402.168C70.8171 400.764 70.2793 398.932 70.2793 396.672V396.48ZM72.8086 396.768C72.8086 398.445 73.1549 399.757 73.8477 400.705C74.5404 401.653 75.4974 402.127 76.7188 402.127C78.3229 402.127 79.4941 401.407 80.2324 399.967V393.172C79.4759 391.777 78.3138 391.08 76.7461 391.08C75.5065 391.08 74.5404 391.559 73.8477 392.516C73.1549 393.473 72.8086 394.89 72.8086 396.768ZM92.8379 404.273C90.8327 404.273 89.2012 403.617 87.9434 402.305C86.6855 400.983 86.0566 399.219 86.0566 397.014V396.549C86.0566 395.081 86.3346 393.773 86.8906 392.625C87.4557 391.467 88.2396 390.565 89.2422 389.918C90.2539 389.262 91.3477 388.934 92.5234 388.934C94.4466 388.934 95.9414 389.567 97.0078 390.834C98.0742 392.101 98.6074 393.915 98.6074 396.275V397.328H88.5859C88.6224 398.786 89.0462 399.967 89.8574 400.869C90.6777 401.762 91.7168 402.209 92.9746 402.209C93.8678 402.209 94.6243 402.027 95.2441 401.662C95.8639 401.298 96.4062 400.814 96.8711 400.213L98.416 401.416C97.1764 403.321 95.3171 404.273 92.8379 404.273ZM92.5234 391.012C91.5026 391.012 90.6458 391.385 89.9531 392.133C89.2604 392.871 88.832 393.91 88.668 395.25H96.0781V395.059C96.0052 393.773 95.6589 392.78 95.0391 392.078C94.4193 391.367 93.5807 391.012 92.5234 391.012ZM106.236 400.568L109.9 389.207H112.484L107.18 404H105.252L99.8926 389.207H102.477L106.236 400.568ZM120.865 404.273C118.86 404.273 117.229 403.617 115.971 402.305C114.713 400.983 114.084 399.219 114.084 397.014V396.549C114.084 395.081 114.362 393.773 114.918 392.625C115.483 391.467 116.267 390.565 117.27 389.918C118.281 389.262 119.375 388.934 120.551 388.934C122.474 388.934 123.969 389.567 125.035 390.834C126.102 392.101 126.635 393.915 126.635 396.275V397.328H116.613C116.65 398.786 117.074 399.967 117.885 400.869C118.705 401.762 119.744 402.209 121.002 402.209C121.895 402.209 122.652 402.027 123.271 401.662C123.891 401.298 124.434 400.814 124.898 400.213L126.443 401.416C125.204 403.321 123.344 404.273 120.865 404.273ZM120.551 391.012C119.53 391.012 118.673 391.385 117.98 392.133C117.288 392.871 116.859 393.91 116.695 395.25H124.105V395.059C124.033 393.773 123.686 392.78 123.066 392.078C122.447 391.367 121.608 391.012 120.551 391.012ZM132.322 404H129.793V383H132.322V404ZM135.713 396.467C135.713 395.018 135.995 393.714 136.561 392.557C137.135 391.399 137.928 390.506 138.939 389.877C139.96 389.248 141.122 388.934 142.426 388.934C144.44 388.934 146.067 389.631 147.307 391.025C148.555 392.42 149.18 394.275 149.18 396.59V396.768C149.18 398.208 148.902 399.502 148.346 400.65C147.799 401.79 147.01 402.678 145.98 403.316C144.96 403.954 143.784 404.273 142.453 404.273C140.448 404.273 138.821 403.576 137.572 402.182C136.333 400.787 135.713 398.941 135.713 396.645V396.467ZM138.256 396.768C138.256 398.408 138.634 399.725 139.391 400.719C140.156 401.712 141.177 402.209 142.453 402.209C143.738 402.209 144.759 401.708 145.516 400.705C146.272 399.693 146.65 398.281 146.65 396.467C146.65 394.844 146.263 393.532 145.488 392.529C144.723 391.518 143.702 391.012 142.426 391.012C141.177 391.012 140.17 391.508 139.404 392.502C138.639 393.495 138.256 394.917 138.256 396.768ZM164.848 396.768C164.848 399.019 164.333 400.833 163.303 402.209C162.273 403.585 160.878 404.273 159.119 404.273C157.324 404.273 155.911 403.704 154.881 402.564V409.688H152.352V389.207H154.662L154.785 390.848C155.815 389.572 157.246 388.934 159.078 388.934C160.855 388.934 162.259 389.604 163.289 390.943C164.328 392.283 164.848 394.147 164.848 396.535V396.768ZM162.318 396.48C162.318 394.812 161.963 393.495 161.252 392.529C160.541 391.563 159.566 391.08 158.326 391.08C156.795 391.08 155.646 391.759 154.881 393.117V400.186C155.637 401.535 156.795 402.209 158.354 402.209C159.566 402.209 160.527 401.73 161.238 400.773C161.958 399.807 162.318 398.376 162.318 396.48ZM174.213 404.273C172.208 404.273 170.576 403.617 169.318 402.305C168.061 400.983 167.432 399.219 167.432 397.014V396.549C167.432 395.081 167.71 393.773 168.266 392.625C168.831 391.467 169.615 390.565 170.617 389.918C171.629 389.262 172.723 388.934 173.898 388.934C175.822 388.934 177.316 389.567 178.383 390.834C179.449 392.101 179.982 393.915 179.982 396.275V397.328H169.961C169.997 398.786 170.421 399.967 171.232 400.869C172.053 401.762 173.092 402.209 174.35 402.209C175.243 402.209 175.999 402.027 176.619 401.662C177.239 401.298 177.781 400.814 178.246 400.213L179.791 401.416C178.551 403.321 176.692 404.273 174.213 404.273ZM173.898 391.012C172.878 391.012 172.021 391.385 171.328 392.133C170.635 392.871 170.207 393.91 170.043 395.25H177.453V395.059C177.38 393.773 177.034 392.78 176.414 392.078C175.794 391.367 174.956 391.012 173.898 391.012ZM190.072 391.477C189.689 391.413 189.275 391.381 188.828 391.381C187.169 391.381 186.044 392.087 185.451 393.5V404H182.922V389.207H185.383L185.424 390.916C186.253 389.594 187.429 388.934 188.951 388.934C189.443 388.934 189.817 388.997 190.072 389.125V391.477Z" fill="#6C63FF" />
    <defs>
        <clipPath id="clip0">
            <rect width="1134.45" height="709.784" fill="white" transform="translate(57)" />
        </clipPath>
    </defs>
</svg>
