<svg width="1075" height="818" viewBox="0 0 1075 818" fill="none" xmlns="http://www.w3.org/2000/svg">
    <g clip-path="url(#clip0)">
        <path d="M591.611 484.662L618.556 531.331L645.5 578H591.611H537.723L564.667 531.331L591.611 484.662Z" fill="#6C63FF" />
        <path d="M438.5 393H325.5V506H438.5V393Z" fill="#6C63FF" />
        <path d="M519.5 321C559.541 321 592 288.541 592 248.5C592 208.459 559.541 176 519.5 176C479.459 176 447 208.459 447 248.5C447 288.541 479.459 321 519.5 321Z" fill="#6C63FF" />
        <path d="M584.75 369.556C584.75 367.182 585.454 364.862 586.773 362.889C588.091 360.916 589.965 359.377 592.158 358.469C594.351 357.561 596.764 357.323 599.091 357.786C601.419 358.249 603.557 359.392 605.236 361.071C606.914 362.749 608.057 364.887 608.52 367.215C608.983 369.542 608.745 371.955 607.837 374.148C606.929 376.341 605.391 378.215 603.417 379.533C601.444 380.852 599.124 381.556 596.75 381.556C593.569 381.552 590.519 380.287 588.269 378.037C586.019 375.787 584.754 372.737 584.75 369.556V369.556ZM586.75 369.556C586.75 371.534 587.337 373.467 588.436 375.112C589.534 376.756 591.096 378.038 592.923 378.795C594.751 379.551 596.761 379.749 598.701 379.364C600.641 378.978 602.423 378.025 603.821 376.627C605.22 375.228 606.172 373.447 606.558 371.507C606.944 369.567 606.746 367.556 605.989 365.729C605.232 363.902 603.95 362.34 602.306 361.241C600.661 360.142 598.728 359.556 596.75 359.556C594.099 359.559 591.557 360.613 589.683 362.488C587.808 364.363 586.753 366.905 586.75 369.556V369.556Z" fill="#3F3D56" />
        <path d="M481.436 578.293L463.772 559.355L482.71 541.691L500.373 560.629L481.436 578.293ZM466.587 559.453L481.534 575.478L497.558 560.531L482.612 544.507L466.587 559.453Z" fill="#3F3D56" />
        <path d="M335.554 308.887L321.178 293.474L336.591 279.098L350.967 294.511L335.554 308.887ZM323.469 293.554L335.634 306.595L348.676 294.431L336.511 281.389L323.469 293.554Z" fill="#3F3D56" />
        <path d="M1074.5 816H450.5V818H1074.5V816Z" fill="#3F3D56" />
        <path d="M537.5 330C517.722 330 498.388 324.135 481.943 313.147C465.498 302.159 452.681 286.541 445.112 268.268C437.543 249.996 435.563 229.889 439.421 210.491C443.28 191.093 452.804 173.275 466.789 159.289C480.775 145.304 498.593 135.78 517.991 131.921C537.389 128.063 557.496 130.043 575.768 137.612C594.041 145.181 609.659 157.998 620.647 174.443C631.635 190.888 637.5 210.222 637.5 230C637.47 256.512 626.925 281.93 608.178 300.678C589.43 319.425 564.012 329.97 537.5 330V330ZM537.5 132C518.117 132 499.17 137.748 483.054 148.516C466.938 159.284 454.377 174.59 446.96 192.497C439.542 210.404 437.602 230.109 441.383 249.119C445.164 268.129 454.498 285.591 468.204 299.296C481.909 313.002 499.371 322.336 518.381 326.117C537.391 329.898 557.096 327.958 575.003 320.54C592.91 313.123 608.216 300.562 618.984 284.446C629.752 268.33 635.5 249.383 635.5 230C635.471 204.018 625.136 179.108 606.764 160.736C588.392 142.364 563.482 132.029 537.5 132V132Z" fill="#3F3D56" />
        <path d="M475.938 307.805L450.105 361.567L451.908 362.433L477.74 308.671L475.938 307.805Z" fill="#3F3D56" />
        <path d="M469.976 433.12L469.024 434.88L582.812 496.461L583.764 494.702L469.976 433.12Z" fill="#3F3D56" />
        <path d="M470.5 507H324.5V361H470.5V507ZM326.5 505H468.5V363H326.5V505Z" fill="#3F3D56" />
        <path d="M687.01 579H535.991L611.5 448.214L687.01 579ZM539.455 577H683.545L611.5 452.214L539.455 577Z" fill="#3F3D56" />
        <path d="M934.305 736.665L923.203 742.72L930.268 765.933L941.369 766.942L947.425 753.822L934.305 736.665Z" fill="#9F616A" />
        <path d="M968.619 777.09V788.191L985.776 787.182L985.537 778.039L968.619 777.09Z" fill="#9F616A" />
        <path d="M930.268 603.444L936.323 679.138L955.499 790.154L985.776 786.117L975.684 698.313L979.721 617.574L930.268 603.444Z" fill="#2F2E41" />
        <path d="M1011.01 546.927L938.342 547.936L930.268 603.444L979.721 626.657L991.832 671.064L930.268 736.665L954.49 766.942C954.49 766.942 988.804 720.517 1014.04 694.276C1039.27 668.036 1027.16 588.306 1027.16 588.306L1011.01 546.927Z" fill="#2F2E41" />
        <path d="M967.61 403.614C979.873 403.614 989.813 393.673 989.813 381.411C989.813 369.148 979.873 359.207 967.61 359.207C955.348 359.207 945.407 369.148 945.407 381.411C945.407 393.673 955.348 403.614 967.61 403.614Z" fill="#9F616A" />
        <path d="M959.536 396.549V418.753L974.675 442.975C974.675 442.975 997.887 425.817 992.841 421.78C987.795 417.743 986.786 386.457 986.786 386.457L959.536 396.549Z" fill="#9F616A" />
        <path d="M959.536 414.716L944.397 432.882L950.453 559.037L997.887 558.028L1005.96 448.021L995.87 419.762L988.946 410.343L976.693 428.845L959.536 414.716Z" fill="#D0CDE1" />
        <path d="M935.314 480.317L924.213 522.705L935.314 565.093L917.148 589.315L901 512.612C901 512.612 913.111 450.039 914.12 442.975C915.129 435.91 917.148 434.901 917.148 434.901L925.222 435.91L935.314 480.317Z" fill="#2F2E41" />
        <path d="M1016.05 496.464L1023.12 509.585L1025.14 531.788L1021.1 557.019L1035.23 580.232L1049.36 516.649L1034.22 434.9H1028.16L1016.05 496.464Z" fill="#2F2E41" />
        <path d="M930.268 735.656C930.268 735.656 916.139 739.693 911.093 740.702C906.046 741.711 914.12 760.887 914.12 760.887C914.12 760.887 919.166 787.127 920.176 792.173C921.185 797.219 928.25 814.377 937.333 816.395C946.416 818.413 940.361 781.071 940.361 781.071C940.361 781.071 944.398 768.961 944.398 764.924C944.398 760.887 938.342 762.905 938.342 762.905C922.194 760.887 930.268 735.656 930.268 735.656Z" fill="#2F2E41" />
        <path d="M963.573 807.367C964.583 813.423 962.564 813.423 978.712 815.441C994.86 817.46 990.823 804.34 990.823 804.34C990.148 798.154 988.794 792.062 986.786 786.173C983.758 778.099 967.61 788.192 967.61 788.192C967.61 788.192 962.564 801.312 963.573 807.367Z" fill="#2F2E41" />
        <path d="M986.812 387.162L987.338 396.137C987.338 396.137 993.851 381.411 994.86 366.272C995.869 351.133 978.712 348.106 968.619 347.096C958.527 346.087 941.37 353.152 941.37 361.226C941.37 369.3 959.536 367.281 966.601 365.263C973.666 363.244 976.693 380.402 976.693 380.402L980.73 381.411L986.812 387.162Z" fill="#2F2E41" />
        <path d="M953.579 421.863L959.536 414.716L976.693 428.845L959.536 440.956L953.579 421.863Z" fill="#D0CDE1" />
        <path d="M995.869 419.762L988.804 410.679L976.693 428.845L991.832 439.947L995.869 419.762Z" fill="#D0CDE1" />
        <path d="M932.287 494.446L936.324 532.797L928.25 556.01L923.203 578.213C923.203 578.213 923.204 599.407 943.388 600.417C963.573 601.426 980.73 536.834 980.73 536.834C980.73 536.834 983.758 550.964 985.777 559.038C987.795 567.112 1022.11 599.408 1022.11 599.408C1022.11 599.408 1030.18 598.398 1037.25 582.25C1044.31 566.102 1023.12 550.964 1023.12 550.964L1017.06 529.77L1019.08 503.529L1033.21 434.901L991.327 413.202L995.869 471.233L980.73 516.649L958.022 416.23L950.453 421.78L918.157 434.901L932.287 494.446Z" fill="#2F2E41" />
        <path d="M207 532C232.957 532 254 510.957 254 485C254 459.043 232.957 438 207 438C181.043 438 160 459.043 160 485C160 510.957 181.043 532 207 532Z" fill="#6C63FF" />
        <path d="M227.141 481.253H210.747C209.256 481.253 207.827 480.661 206.773 479.607C205.719 478.552 205.126 477.123 205.126 475.632V459.238C205.126 459.177 205.114 459.116 205.091 459.059C205.067 459.002 205.033 458.951 204.989 458.907C204.946 458.864 204.894 458.829 204.837 458.806C204.78 458.782 204.72 458.77 204.658 458.77H193.885C191.897 458.77 189.991 459.559 188.586 460.965C187.18 462.37 186.391 464.277 186.391 466.264V503.736C186.391 505.723 187.18 507.63 188.586 509.035C189.991 510.441 191.897 511.23 193.885 511.23H220.115C222.103 511.23 224.009 510.441 225.414 509.035C226.82 507.63 227.609 505.723 227.609 503.736V481.721C227.609 481.66 227.597 481.599 227.574 481.542C227.55 481.485 227.516 481.434 227.472 481.39C227.429 481.347 227.377 481.312 227.32 481.288C227.263 481.265 227.203 481.253 227.141 481.253V481.253ZM216.368 499.989H197.632C197.135 499.989 196.659 499.791 196.307 499.44C195.956 499.089 195.759 498.612 195.759 498.115C195.759 497.618 195.956 497.142 196.307 496.79C196.659 496.439 197.135 496.241 197.632 496.241H216.368C216.865 496.241 217.341 496.439 217.693 496.79C218.044 497.142 218.241 497.618 218.241 498.115C218.241 498.612 218.044 499.089 217.693 499.44C217.341 499.791 216.865 499.989 216.368 499.989ZM216.368 490.621H197.632C197.135 490.621 196.659 490.423 196.307 490.072C195.956 489.721 195.759 489.244 195.759 488.747C195.759 488.25 195.956 487.774 196.307 487.422C196.659 487.071 197.135 486.874 197.632 486.874H216.368C216.865 486.874 217.341 487.071 217.693 487.422C218.044 487.774 218.241 488.25 218.241 488.747C218.241 489.244 218.044 489.721 217.693 490.072C217.341 490.423 216.865 490.621 216.368 490.621Z" fill="white" />
        <path d="M226.113 477.106L209.273 460.266C209.24 460.234 209.198 460.212 209.153 460.203C209.108 460.194 209.061 460.198 209.018 460.216C208.976 460.234 208.939 460.264 208.913 460.302C208.888 460.34 208.874 460.385 208.874 460.432V475.632C208.874 476.129 209.071 476.606 209.422 476.957C209.774 477.308 210.25 477.506 210.747 477.506H225.948C225.994 477.505 226.039 477.492 226.077 477.466C226.116 477.44 226.146 477.404 226.163 477.361C226.181 477.318 226.185 477.271 226.176 477.226C226.168 477.181 226.145 477.139 226.113 477.106L226.113 477.106Z" fill="white" />
        <path d="M336 178C361.957 178 383 156.957 383 131C383 105.043 361.957 84 336 84C310.043 84 289 105.043 289 131C289 156.957 310.043 178 336 178Z" fill="#6C63FF" />
        <path d="M343.462 128.202C343.093 128.202 342.733 128.092 342.426 127.887C342.119 127.682 341.88 127.391 341.739 127.05C341.598 126.709 341.561 126.334 341.633 125.972C341.705 125.61 341.882 125.278 342.143 125.017L346.421 120.739L342.143 116.462C341.793 116.112 341.597 115.637 341.597 115.142C341.597 114.648 341.793 114.173 342.143 113.823C342.493 113.473 342.968 113.277 343.462 113.277C343.957 113.277 344.432 113.473 344.782 113.823L350.378 119.42C350.552 119.593 350.689 119.799 350.783 120.025C350.877 120.252 350.925 120.494 350.925 120.739C350.925 120.984 350.877 121.227 350.783 121.453C350.689 121.679 350.552 121.885 350.378 122.058L344.782 127.655C344.608 127.829 344.403 127.966 344.176 128.06C343.95 128.154 343.707 128.202 343.462 128.202Z" fill="white" />
        <path d="M313.613 133.798C313.368 133.798 313.125 133.75 312.899 133.656C312.673 133.563 312.467 133.425 312.294 133.252C312.12 133.079 311.983 132.873 311.889 132.647C311.796 132.42 311.747 132.178 311.747 131.933V130.067C311.762 127.104 312.945 124.266 315.04 122.17C317.135 120.074 319.972 118.89 322.935 118.874H347.194C347.688 118.874 348.163 119.07 348.513 119.42C348.863 119.77 349.059 120.244 349.059 120.739C349.059 121.234 348.863 121.709 348.513 122.058C348.163 122.408 347.688 122.605 347.194 122.605H322.941C320.964 122.617 319.072 123.407 317.675 124.805C316.278 126.204 315.489 128.096 315.479 130.073V131.933C315.479 132.178 315.43 132.42 315.337 132.647C315.243 132.873 315.105 133.079 314.932 133.252C314.759 133.425 314.553 133.563 314.327 133.656C314.101 133.75 313.858 133.798 313.613 133.798V133.798Z" fill="white" />
        <path d="M328.538 148.723C328.293 148.723 328.05 148.675 327.824 148.581C327.597 148.488 327.392 148.35 327.219 148.177L321.622 142.58C321.448 142.407 321.311 142.201 321.217 141.975C321.124 141.748 321.075 141.506 321.075 141.261C321.075 141.016 321.124 140.773 321.217 140.547C321.311 140.32 321.448 140.115 321.622 139.942L327.219 134.345C327.568 133.995 328.043 133.799 328.537 133.8C329.032 133.8 329.506 133.996 329.856 134.346C330.205 134.696 330.402 135.17 330.402 135.664C330.402 136.159 330.206 136.633 329.857 136.983L325.579 141.261L329.857 145.538C330.118 145.799 330.295 146.132 330.367 146.493C330.439 146.855 330.402 147.23 330.261 147.571C330.12 147.912 329.881 148.204 329.574 148.409C329.267 148.614 328.907 148.723 328.538 148.723Z" fill="white" />
        <path d="M324.806 143.126C324.312 143.126 323.837 142.93 323.487 142.58C323.137 142.23 322.941 141.755 322.941 141.261C322.941 140.766 323.137 140.291 323.487 139.941C323.837 139.592 324.312 139.395 324.806 139.395H349.059C351.036 139.383 352.928 138.593 354.325 137.194C355.722 135.796 356.511 133.904 356.521 131.927V130.067C356.521 129.572 356.718 129.098 357.068 128.748C357.418 128.398 357.892 128.202 358.387 128.202C358.882 128.202 359.356 128.398 359.706 128.748C360.056 129.098 360.253 129.572 360.253 130.067V131.933C360.238 134.896 359.055 137.734 356.96 139.83C354.865 141.926 352.028 143.11 349.065 143.126L324.806 143.126Z" fill="white" />
        <path d="M226 335C251.957 335 273 313.957 273 288C273 262.043 251.957 241 226 241C200.043 241 179 262.043 179 288C179 313.957 200.043 335 226 335Z" fill="#6C63FF" />
        <path d="M209.825 313.54H206.419C205.742 313.54 205.092 313.271 204.614 312.792C204.135 312.313 203.865 311.663 203.865 310.986V295.662C203.865 294.985 204.135 294.335 204.614 293.856C205.092 293.377 205.742 293.108 206.419 293.108H209.825C210.502 293.108 211.152 293.377 211.631 293.856C212.11 294.335 212.379 294.985 212.379 295.662V310.986C212.379 311.663 212.11 312.313 211.631 312.792C211.152 313.271 210.502 313.54 209.825 313.54V313.54Z" fill="white" />
        <path d="M233.662 313.54H230.257C229.579 313.54 228.93 313.271 228.451 312.792C227.972 312.313 227.703 311.663 227.703 310.986V285.446C227.703 284.769 227.972 284.119 228.451 283.64C228.93 283.161 229.579 282.892 230.257 282.892H233.662C234.339 282.892 234.989 283.161 235.468 283.64C235.947 284.119 236.216 284.769 236.216 285.446V310.986C236.216 311.663 235.947 312.313 235.468 312.792C234.989 313.271 234.339 313.54 233.662 313.54V313.54Z" fill="white" />
        <path d="M245.581 313.54H242.175C241.498 313.54 240.848 313.271 240.369 312.792C239.89 312.313 239.621 311.663 239.621 310.986V273.527C239.621 272.85 239.89 272.2 240.369 271.721C240.848 271.242 241.498 270.973 242.175 270.973H245.581C246.258 270.973 246.908 271.242 247.387 271.721C247.865 272.2 248.135 272.85 248.135 273.527V310.986C248.135 311.663 247.865 312.313 247.387 312.792C246.908 313.271 246.258 313.54 245.581 313.54V313.54Z" fill="white" />
        <path d="M221.743 313.54H218.338C217.661 313.54 217.011 313.271 216.532 312.792C216.053 312.313 215.784 311.663 215.784 310.986V265.014C215.784 264.337 216.053 263.687 216.532 263.208C217.011 262.729 217.661 262.46 218.338 262.46H221.743C222.421 262.46 223.07 262.729 223.549 263.208C224.028 263.687 224.297 264.337 224.297 265.014V310.986C224.297 311.321 224.231 311.653 224.103 311.963C223.975 312.273 223.787 312.555 223.549 312.792C223.312 313.029 223.031 313.217 222.721 313.346C222.411 313.474 222.079 313.54 221.743 313.54V313.54Z" fill="white" />
        <path d="M687 455C712.957 455 734 433.957 734 408C734 382.043 712.957 361 687 361C661.043 361 640 382.043 640 408C640 433.957 661.043 455 687 455Z" fill="#6C63FF" />
        <path d="M693.798 398.741C693.222 398.742 692.663 398.942 692.218 399.308C691.773 399.673 691.468 400.182 691.356 400.747C691.244 401.313 691.331 401.899 691.603 402.407C691.875 402.915 692.315 403.314 692.847 403.534C693.38 403.754 693.972 403.783 694.523 403.615C695.075 403.448 695.551 403.094 695.871 402.615C696.191 402.136 696.335 401.56 696.278 400.987C696.221 400.414 695.968 399.877 695.56 399.47C695.328 399.239 695.054 399.056 694.751 398.93C694.449 398.805 694.125 398.741 693.798 398.741Z" fill="white" />
        <path d="M707.665 388.781V388.773C707.586 388.427 707.412 388.11 707.162 387.857C706.913 387.605 706.598 387.427 706.253 387.345C703.472 386.666 699.097 387.389 694.249 389.331C689.587 391.143 685.321 393.844 681.689 397.284C680.697 398.27 679.776 399.325 678.932 400.441C677.066 400.312 675.196 400.612 673.466 401.319C668.077 403.69 666.538 409.759 666.128 412.251C666.069 412.605 666.092 412.968 666.196 413.311C666.3 413.655 666.482 413.97 666.728 414.232C666.973 414.494 667.276 414.695 667.612 414.821C667.948 414.947 668.309 414.994 668.666 414.957H668.678L674.681 414.302C674.688 414.379 674.696 414.449 674.703 414.513C674.78 415.244 675.106 415.927 675.627 416.447L678.556 419.378C679.075 419.899 679.758 420.226 680.489 420.303L680.69 420.324L680.036 426.319V426.331C680.005 426.636 680.034 426.944 680.121 427.238C680.209 427.531 680.353 427.805 680.547 428.043C680.74 428.28 680.978 428.478 681.247 428.624C681.517 428.769 681.812 428.861 682.117 428.892C682.189 428.9 682.261 428.904 682.333 428.904C682.463 428.904 682.592 428.894 682.72 428.873C685.226 428.469 691.292 426.949 693.657 421.532C694.358 419.807 694.659 417.945 694.539 416.087C695.659 415.245 696.718 414.323 697.707 413.33C701.145 409.732 703.849 405.5 705.669 400.869C707.6 396.076 708.327 391.668 707.665 388.781ZM697.674 405.101C696.907 405.869 695.93 406.392 694.866 406.604C693.802 406.816 692.7 406.708 691.697 406.293C690.695 405.879 689.838 405.176 689.235 404.275C688.632 403.373 688.309 402.313 688.309 401.228C688.308 400.143 688.629 399.083 689.232 398.18C689.834 397.278 690.69 396.575 691.692 396.159C692.694 395.743 693.797 395.634 694.861 395.845C695.925 396.056 696.902 396.578 697.67 397.345L697.674 397.349C698.702 398.361 699.285 399.741 699.296 401.184C699.307 402.627 698.744 404.015 697.732 405.043L697.674 405.101Z" fill="white" />
        <path d="M678.22 420.173C677.859 420.128 677.494 420.217 677.194 420.422C676.598 420.83 675.998 421.233 675.394 421.626C675.131 421.795 674.819 421.871 674.509 421.841C674.198 421.812 673.906 421.679 673.68 421.463C673.454 421.248 673.307 420.963 673.262 420.654C673.218 420.345 673.278 420.03 673.434 419.76L674.568 417.8C674.73 417.563 674.82 417.284 674.828 416.997C674.835 416.709 674.76 416.426 674.611 416.181C674.461 415.936 674.244 415.738 673.986 415.613C673.727 415.488 673.438 415.44 673.153 415.475C671.894 415.634 670.725 416.207 669.828 417.105C669.486 417.447 668.448 418.487 667.889 422.448C667.729 423.586 667.629 424.732 667.588 425.88C667.583 426.076 667.617 426.271 667.687 426.454C667.757 426.637 667.863 426.804 667.998 426.946C668.133 427.089 668.295 427.203 668.474 427.282C668.653 427.362 668.847 427.406 669.043 427.411C669.055 427.411 669.068 427.411 669.081 427.411H669.119C670.268 427.37 671.414 427.271 672.553 427.113C676.516 426.553 677.556 425.513 677.898 425.171C678.799 424.274 679.371 423.099 679.52 421.836C679.568 421.443 679.458 421.047 679.215 420.735C678.971 420.424 678.613 420.221 678.22 420.173V420.173Z" fill="white" />
        <path d="M599 713C624.957 713 646 691.957 646 666C646 640.043 624.957 619 599 619C573.043 619 552 640.043 552 666C552 691.957 573.043 713 599 713Z" fill="#6C63FF" />
        <path d="M601.252 664.769L598.819 662.335C598.261 661.778 597.506 661.464 596.718 661.462C595.93 661.46 595.173 661.77 594.613 662.324L577.698 677.934C577.077 678.484 576.697 679.256 576.64 680.083C576.622 680.494 576.689 680.904 576.837 681.288C576.984 681.672 577.21 682.021 577.498 682.314L581.132 685.988L581.139 685.994C581.7 686.554 582.46 686.87 583.253 686.872H583.363C583.774 686.849 584.176 686.745 584.546 686.567C584.917 686.388 585.248 686.138 585.522 685.831L601.241 668.994C601.803 668.437 602.12 667.68 602.124 666.889C602.127 666.098 601.816 665.339 601.259 664.777L601.252 664.769Z" fill="white" />
        <path d="M620.804 659.85L620.775 659.821L617.582 656.661C617.395 656.474 617.173 656.327 616.929 656.227C616.684 656.126 616.422 656.076 616.158 656.077C615.731 656.078 615.314 656.213 614.967 656.463C614.967 656.423 614.972 656.384 614.975 656.349C615.104 655.533 614.932 654.698 614.49 653.999C613.787 653.051 613.015 652.156 612.18 651.321L612.172 651.314C609.838 649.074 607.095 647.305 604.092 646.102C602.522 645.457 600.842 645.127 599.146 645.128C596.95 645.108 594.816 645.855 593.112 647.241C592.627 647.704 592.185 648.21 591.791 648.752C591.603 649.012 591.503 649.326 591.508 649.647C591.512 649.968 591.62 650.279 591.815 650.534C592.01 650.789 592.282 650.974 592.591 651.061C592.9 651.149 593.229 651.135 593.529 651.02C593.79 650.923 594.057 650.841 594.328 650.775C594.893 650.656 595.472 650.62 596.047 650.668C597.24 650.793 598.383 651.212 599.373 651.888C599.928 652.356 600.37 652.943 600.665 653.606C600.959 654.27 601.1 654.991 601.074 655.717C600.661 656.895 600.028 657.985 599.211 658.93C598.993 659.217 598.887 659.573 598.911 659.933C598.936 660.293 599.091 660.632 599.346 660.886L602.552 664.093C602.822 664.363 603.184 664.519 603.566 664.53C603.947 664.541 604.318 664.405 604.602 664.15C605.509 663.341 606.89 662.12 607.372 661.821C607.785 661.545 608.252 661.361 608.742 661.28C609.107 661.245 609.475 661.322 609.794 661.502C609.796 661.518 609.794 661.534 609.789 661.55C609.784 661.565 609.776 661.579 609.765 661.591L609.596 661.752L609.568 661.778C609.191 662.153 608.979 662.663 608.978 663.195C608.977 663.727 609.187 664.237 609.562 664.614L609.572 664.624L612.765 667.783C612.952 667.97 613.174 668.117 613.418 668.217C613.663 668.317 613.924 668.368 614.188 668.366C614.719 668.367 615.228 668.159 615.607 667.788L620.778 662.68C620.796 662.662 620.814 662.644 620.83 662.625C621.177 662.245 621.367 661.747 621.363 661.232C621.358 660.718 621.158 660.224 620.804 659.85Z" fill="white" />
    </g>
    <defs>
        <clipPath id="clip0">
            <rect width="1074.5" height="818" fill="white" />
        </clipPath>
    </defs>
</svg>
